<?xml version="1.0" standalone="no"?>
<!DOCTYPE svg PUBLIC "-//W3C//DTD SVG 1.1//EN" "http://www.w3.org/Graphics/SVG/1.1/DTD/svg11.dtd" >
<svg xmlns="http://www.w3.org/2000/svg">
<metadata>Generated by IcoMoon</metadata>
<defs>
<font id="trumani" horiz-adv-x="1024">
<font-face units-per-em="1024" ascent="960" descent="-64" />
<missing-glyph horiz-adv-x="1024" />
<glyph unicode="&#x20;" horiz-adv-x="512" d="" />
<glyph unicode="&#xe600;" glyph-name="Pie-Chart2" d="M167.871-2.872c-59.397 0.030-107.721 48.368-107.736 107.736l-0.015 657.774c0.030 59.382 48.368 107.706 107.751 107.721h152.708c17.115 0 31.044-13.929 31.044-31.044 0-17.13-13.929-31.059-31.044-31.059h-129.989c-35.431-0.045-64.296-28.91-64.356-64.326v-616.348c0.060-35.401 28.925-64.266 64.341-64.341h631.644c35.401 0.075 64.251 28.94 64.326 64.326v616.348c-0.075 35.431-28.925 64.296-64.326 64.341h-130.004c-17.13 0-31.059 13.929-31.059 31.059 0 17.115 13.929 31.044 31.059 31.044h152.723c59.352-0.015 107.676-48.338 107.706-107.721v-657.774c-0.781-59.998-49.105-107.706-107.706-107.736h-677.068zM399.922 802.409h212.977c13.914 0 25.274 11.39 25.274 25.304v41.156c0 13.929-11.36 25.304-25.274 25.304h-212.977c-13.929 0-25.319-11.375-25.319-25.304v-41.156c0-13.914 11.39-25.304 25.319-25.304zM427.61 632.383c4.823 1.758 9.737 3.366 14.74 4.808 120.237 35.055 245.944-29.917 288.062-145.977 1.758-4.823 3.366-9.752 4.823-14.755 35.040-120.252-29.917-245.944-145.962-288.062-4.823-1.743-9.767-3.351-14.785-4.838-120.252-35.055-245.944 29.932-288.047 146.007-1.773 4.808-3.381 9.722-4.838 14.725-2.314 7.919-4.162 15.822-5.62 23.756l234.104 28.489c4.793 0.586 8.925 3.561 10.969 7.889 2.044 4.342 1.713 9.436-0.872 13.493l-127.164 198.673c10.939 6.101 22.479 11.405 34.59 15.792zM484.694 421.569l-226.38-27.542c-3.696-0.466-7.017-2.314-9.316-5.259-2.269-2.945-3.291-6.596-2.84-10.293 1.728-14.019 4.568-28.038 8.64-41.982l13.388 3.892-13.373-3.907c1.623-5.56 3.411-11.074 5.364-16.453 47.151-129.854 187.629-202.429 322.125-163.257 5.59 1.623 11.089 3.411 16.498 5.379 129.839 47.151 202.399 187.614 163.257 322.080-1.623 5.65-3.441 11.149-5.394 16.529-47.151 129.839-187.644 202.414-322.095 163.241-5.59-1.608-11.074-3.411-16.483-5.379-18.572-6.732-36.002-15.402-52.065-25.694-3.155-1.998-5.319-5.109-6.131-8.73-0.796-3.651-0.135-7.393 1.878-10.533l122.927-192.091zM446.313 437.766c1.172 0.406 2.119 1.277 2.645 2.419 0.706 1.503 0.526 3.261-0.421 4.613l-123.378 175.833c-1.473 2.104-4.373 2.599-6.476 1.157-64.717-45.033-101.786-121.89-95.339-201.723 0.090-1.217 0.706-2.404 1.653-3.201 0.947-0.781 2.209-1.172 3.456-1.037l216.749 21.667c0.406 0.030 0.766 0.135 1.112 0.27z" />
<glyph unicode="&#xe601;" glyph-name="Zoom-In" d="M570.888 388.833c-93.429-93.429-244.887-93.429-338.316 0-93.401 93.429-93.401 244.873 0 338.288 93.429 93.415 244.887 93.415 338.316 0s93.429-244.859 0-338.288zM939.701 146.712l-203.626 173.457c-5.147 4.391-5.475 12.247-0.67 17.038 9.823 9.838 9.823 25.763 0 35.587l-52.026 52.026c-5.846 5.831-6.915 14.757-3.85 22.413 42.815 107.616 20.73 235.064-66.354 322.177-116.783 116.769-306.109 116.769-422.878 0-116.783-116.783-116.783-306.095 0-422.864 86.415-86.429 212.537-108.799 319.625-67.324 7.656 2.98 16.553 1.796 22.37-4.006l52.739-52.753c9.852-9.838 25.778-9.838 35.601 0 4.791 4.776 12.646 4.463 17.052-0.699l173.443-203.626c9.282-10.893 25.906-11.563 36.029-1.426l93.971 93.971c10.137 10.137 9.467 26.747-1.426 36.029zM541.288 591.189h-93.030c-7.343 0-13.288 5.945-13.288 13.288v93.030c0.014 14.685-11.891 26.59-26.576 26.576h-13.302c-14.671 0-26.562-11.891-26.562-26.562v-93.045c0.014-7.343-5.96-13.288-13.288-13.288h-93.030c-14.685 0-26.576-11.891-26.576-26.562v-13.302c0-14.685 11.891-26.576 26.576-26.576l93.016-0.014c7.343 0.014 13.317-5.917 13.302-13.288v-93.016c0-14.671 11.891-26.576 26.576-26.562h13.288c14.671 0 26.576 11.891 26.576 26.562l0.014 93.030c-0.014 7.343 5.945 13.288 13.274 13.288h93.030c14.671 0 26.562 11.891 26.562 26.576l0.014 13.288c0 14.685-11.905 26.576-26.576 26.576z" />
<glyph unicode="&#xe602;" glyph-name="Zoom-Out" d="M567.754 388.422c-98.423-98.423-257.97-98.423-356.408 0-98.423 98.423-98.423 257.985 0 356.408 98.438 98.423 257.985 98.423 356.408 0s98.423-257.985 0-356.408zM956.326 133.341l-214.536 182.731c-5.418 4.64-5.762 12.916-0.703 17.96 10.342 10.357 10.342 27.135 0 37.507l-54.824 54.809c-6.121 6.121-7.259 15.536-4.056 23.618 45.14 113.36 21.867 247.643-69.881 339.42-123.043 123.013-322.493 123.013-445.536 0-123.013-123.043-123.013-322.493 0-445.521 91.044-91.044 223.935-114.632 336.741-70.913 8.067 3.128 17.436 1.886 23.558-4.251l55.587-55.572c10.342-10.357 27.135-10.357 37.507 0 5.029 5.044 13.306 4.715 17.945-0.718l182.731-214.521c9.788-11.495 27.285-12.198 37.956-1.512l99.021 98.991c10.656 10.686 9.968 28.183-1.512 37.971zM536.563 601.62h-294.026c-15.476 0-28.003-12.527-28.003-28.003l-0.015-13.994c0.015-15.476 12.557-28.003 28.003-27.988l294.041-0.015c15.461 0 28.003 12.542 28.003 28.003l-0.015 13.994c0.015 15.476-12.542 28.018-27.988 28.003z" />
<glyph unicode="&#xe603;" glyph-name="Airplane" d="M857.668 390.375l-276.371 156.658c-6.869 3.946-10.669 11.546-10.523 19.541 3.069 139.135-14.323 298.176-80.661 298.176-0.071 0-0.13 0 0 0-1.462 0.065-1.754 0-2.777 0-66.367 0-83.773-159.027-80.675-298.147 0-7.892-3.508-15.624-10.523-19.54l-276.371-156.659c-13.299-7.6-21.659-21.849-21.659-37.195v-27.593c0-12.13 11.984-20.476 23.369-16.31l45.95 16.954c6.87 2.484 13.739-2.046 19-7.161 5.115-4.969 12.277-7.6 22.609-7.6 13.3 0 24.685 11.546 28.543 27.403 1.754 7.015 6.431 13.154 13.3 15.126l26.701 7.892c6.138 1.754 11.838-2.923 14.177-8.915 5.115-12.569 17.772-17.406 30.151-14.177 15.74 4.093 23.925 13.008 26.541 27.798 1.462 7.015 6.139 12.715 12.862 14.805l50.261 15.214c6.285 1.9 12.715-2.63 13.446-9.207 13.299-104.76 29.493-194.176 35.544-226.167 1.462-6.577-3.215-12.862-9.938-14.031-21.981-3.8-64.934-17.742-57.174-68.515 3.361-22.025 23.647 0 92.674 2.923 0 0 1.461 0 1.461 0s0-0.065 1.462-0.065c71.613-1.9 92.338-27.973 95.758-5.554 7.746 50.758-35.193 66.133-57.16 70.62-6.285 1.462-11.253 6.869-10.084 13.299 5.846 30.955 22.346 121.159 35.719 227.103 1.462 6.577 7.161 11.254 13.593 9.354l50.276-15.214c6.722-2.046 11.692-7.892 12.861-14.79 2.63-14.79 10.815-23.72 26.541-27.812 12.423-3.215 25.080 1.608 30.137 14.176 2.338 5.992 8.038 10.669 14.177 8.769l26.701-7.892c6.869-2.047 11.692-8.185 13.299-15.141 3.946-15.901 15.2-27.389 28.573-27.389 10.23 0 17.45 2.631 22.609 7.6 5.261 5.115 12.13 9.646 18.985 7.161l45.95-16.954c11.4-4.238 23.369 4.239 23.369 16.31v27.594c0 15.331-8.331 29.61-21.659 37.181z" />
<glyph unicode="&#xe604;" glyph-name="Clipboard" d="M127.030 771.732v-741.982l62.196-62.196h679.787l62.196 62.196v741.982l-62.196 62.196h-123.3v-62.196h123.3v-741.982h-679.787v741.982h123.3v62.196h-123.3l-62.196-62.196zM683.517 709.537v186.587h-308.796v-186.587h308.796zM498.022 833.928h62.196v-62.196h-62.196v62.196zM250.33 462.937h185.496v185.496h-185.496v-185.496zM498.022 586.237h309.887v62.196h-309.887v-62.196zM498.022 462.937h309.887v61.104h-309.887v-61.104zM250.33 338.546h557.578v62.196h-557.578v-62.196zM250.33 215.246h557.578v62.196h-557.578v-62.196zM250.33 90.855h557.578v62.196h-557.578v-62.196z" />
<glyph unicode="&#xe605;" glyph-name="Gift" d="M873.658 489.653c0-7.796-6.923-13.482-14.706-13.482h-262.444c-7.675 0-14.37 5.753-14.37 13.442v64.052c0 7.353 5.861 13.442 13.214 13.442h265.952c7.192 0 12.353-6.479 12.353-13.671v-63.783zM806.393 89.239c0-7.38-5.471-13.859-12.864-13.859h-198.446c-7.286 0-12.945 6.143-12.945 13.442v319.519c0 7.42 6.022 13.442 13.442 13.442h197.371c7.178 0 13.442-5.35 13.442-12.528v-320.017zM468.62 489.612c0-7.689-6.681-13.442-14.356-13.442h-262.457c-7.837 0-14.692 5.82-14.692 13.657v63.783c0 7.286 5.605 13.496 12.891 13.496h264.178c7.702 0 14.437-5.74 14.437-13.442v-64.052zM468.62 88.822c0-7.192-5.363-13.442-12.555-13.442h-197.666c-7.339 0-14.020 5.175-14.020 12.528v320.003c0 7.541 5.888 13.872 13.442 13.872h197.357c7.433 0 13.442-6.022 13.442-13.442v-319.519zM900.824 621.48h-296.99c-2.957 0-3.777 4.046-1.035 5.189l128.735 73.421c11.91 4.987 15.069 20.392 6.062 29.653l-119.621 91.635c-8.469 8.724-23.188 5.242-26.871-6.345l-54.481-185.34c-1.546-4.879-6.116-8.213-11.238-8.213s-9.692 3.334-11.238 8.213l-81.365 145.014c-3.67 11.587-18.389 15.069-26.857 6.345l-88.705-91.635c-8.979-9.262-5.847-24.666 6.076-29.653l124.676-33.095c2.715-1.143 1.922-5.189-1.035-5.189h-297.004c-15.055 0-27.193-12.179-27.193-27.193v-145.35c0-15.015 12.138-27.153 27.193-27.153h26.629c7.42 0 13.442-6.022 13.442-13.442v-360.155c0-15.042 12.152-27.193 27.193-27.193h616.375c15.042 0 27.207 12.152 27.207 27.193v360.155c0 7.42 6.009 13.442 13.442 13.442h26.602c15.055 0 27.207 12.138 27.207 27.153v145.35c0 15.015-12.152 27.193-27.207 27.193z" />
<glyph unicode="&#xe606;" glyph-name="Graph" d="M505.654 815.285c-5.012 0-9.838-1.785-13.651-5.012l-197.17-159.030c-3.070-2.599-4.17-6.74-2.77-10.538s4.912-6.254 8.953-6.254h409.276c4.041 0 7.554 2.456 8.953 6.254s0.3 7.939-2.77 10.552l-197.17 159.015c-3.813 3.227-8.639 5.012-13.651 5.012zM162.949 571.622c-10.238 0-18.563-8.325-18.563-18.563v-471.22c0-10.238 8.325-18.563 18.563-18.563h685.411c10.238 0 18.563 8.325 18.563 18.563v471.22c0 10.238-8.325 18.563-18.563 18.563h-685.411zM105.832 0.446c-13.394 0-24.275 10.895-24.275 24.275v585.455c0 13.394 10.881 24.275 24.275 24.275h100.47c10.21 0 20.134 3.641 27.93 10.267l252.445 206.009c5.283 4.484 12.023 6.968 18.977 6.968s13.694-2.485 18.977-6.968l252.445-206.009c7.797-6.626 17.721-10.267 27.93-10.267h100.47c13.394 0 24.275-10.881 24.275-24.275v-585.455c0-13.38-10.881-24.275-24.275-24.275h-799.646zM366.36 259.064c-6.254-4.798-15.208-3.613-20.005 2.642s-3.613 15.222 2.627 20.020l127.772 98.042c12.966 9.938 31.315 8.739 42.852-2.799l41.582-41.567c5.84-5.84 15.050-6.697 21.862-2.013l104.454 71.683c6.497 4.455 15.379 2.799 19.848-3.713 4.455-6.497 2.799-15.393-3.698-19.848l-112.222-77.023c-13.637-9.353-32.057-7.654-43.752 4.027l-40.639 40.653c-5.783 5.769-14.951 6.369-21.419 1.399l-119.261-91.502zM303.525 149.32c0-7.882-6.383-14.279-14.279-14.279s-14.279 6.397-14.279 14.279v328.426c0 7.882 6.383 14.279 14.279 14.279s14.279-6.397 14.279-14.279v-328.426zM789.025 206.438c0-7.882-6.383-14.279-14.279-14.279h-542.617c-7.897 0-14.279 6.397-14.279 14.279s6.383 14.279 14.279 14.279h542.617c7.897 0 14.279-6.397 14.279-14.279z" />
<glyph unicode="&#xe607;" glyph-name="Phone" d="M896.53 143.773c0-18.141-14.747-32.902-32.874-32.902h-385.35c-9.961 0-18.072 8.111-18.072 18.086v44.95c0 4.021-1.586 7.805-4.438 10.657-0.988 1.002-2.059 1.989-3.116 2.977-5.509 5.134-11.742 10.963-11.742 19.56l0.028 398.358c0 8.598 6.219 14.399 11.7 19.519 1.071 1.002 2.129 1.989 3.13 2.991 2.852 2.866 4.438 6.65 4.438 10.684v50.556c0 9.975 8.111 18.086 18.072 18.086h385.35c18.127 0 32.874-14.761 32.874-32.902v-530.62zM274.438 207.087c0-8.598-6.219-14.413-11.714-19.533-1.057-1.002-2.115-1.989-3.116-2.977-2.852-2.852-4.438-6.65-4.438-10.671v-44.95c0-9.975-8.111-18.086-18.072-18.086h-14.816c-18.141 0-32.888 14.761-32.888 32.902l0.028 530.62c-0.028 8.765 3.395 17.028 9.599 23.247 6.219 6.233 14.482 9.655 23.261 9.655h14.816c9.961 0 18.072-8.111 18.072-18.086v-50.556c0-4.035 1.586-7.819 4.438-10.684 1.002-1.002 2.059-1.989 3.13-2.991 5.481-5.12 11.7-10.921 11.7-19.519v-398.372zM894.262 767.786h-415.957c-9.961 0-18.072 8.111-18.072 18.072v19.352c0 8.347-6.789 15.122-15.122 15.122h-174.847c-8.319 0-15.095-6.775-15.095-15.122v-19.352c0-9.961-8.111-18.072-18.072-18.072h-45.423c-16.75 0-32.499-6.553-44.366-18.42-11.867-11.881-18.392-27.629-18.392-44.366v-597.44c0-34.613 28.158-62.771 62.757-62.771h45.423c9.961 0 18.072-8.111 18.072-18.086v-19.366c0-8.319 6.775-15.109 15.095-15.109h174.875c8.319 0 15.095 6.789 15.095 15.109v19.366c0 9.975 8.111 18.086 18.072 18.086h415.957c16.722 0 32.471 6.539 44.352 18.406 11.867 11.881 18.406 27.643 18.406 44.366v597.44c0 34.613-28.158 62.785-62.757 62.785zM571.227 487.16h-13.912c-15.359 0-27.824-12.465-27.824-27.824v-13.912c0-15.359 12.465-27.824 27.824-27.824h13.912c15.359 0 27.824 12.465 27.824 27.824v13.912c0 15.359-12.465 27.824-27.824 27.824zM682.523 487.16h-13.912c-15.359 0-27.824-12.465-27.824-27.824v-13.912c0-15.359 12.465-27.824 27.824-27.824h13.912c15.359 0 27.824 12.465 27.824 27.824v13.912c0 15.359-12.465 27.824-27.824 27.824zM793.82 487.16h-13.912c-15.359 0-27.824-12.465-27.824-27.824v-13.912c0-15.359 12.465-27.824 27.824-27.824h13.912c15.359 0 27.824 12.465 27.824 27.824v13.912c0 15.359-12.465 27.824-27.824 27.824zM571.227 375.863h-13.912c-15.359 0-27.824-12.465-27.824-27.824v-13.912c0-15.359 12.465-27.824 27.824-27.824h13.912c15.359 0 27.824 12.465 27.824 27.824v13.912c0 15.359-12.465 27.824-27.824 27.824zM682.523 375.863h-13.912c-15.359 0-27.824-12.465-27.824-27.824v-13.912c0-15.359 12.465-27.824 27.824-27.824h13.912c15.359 0 27.824 12.465 27.824 27.824v13.912c0 15.359-12.465 27.824-27.824 27.824zM793.82 375.863h-13.912c-15.359 0-27.824-12.465-27.824-27.824v-13.912c0-15.359 12.465-27.824 27.824-27.824h13.912c15.359 0 27.824 12.465 27.824 27.824v13.912c0 15.359-12.465 27.824-27.824 27.824zM571.227 264.566h-13.912c-15.359 0-27.824-12.465-27.824-27.824v-13.912c0-15.359 12.465-27.824 27.824-27.824h13.912c15.359 0 27.824 12.465 27.824 27.824v13.912c0 15.359-12.465 27.824-27.824 27.824zM682.523 264.566h-13.912c-15.359 0-27.824-12.465-27.824-27.824v-13.912c0-15.359 12.465-27.824 27.824-27.824h13.912c15.359 0 27.824 12.465 27.824 27.824v13.912c0 15.359-12.465 27.824-27.824 27.824zM793.82 264.566h-13.912c-15.359 0-27.824-12.465-27.824-27.824v-13.912c0-15.359 12.465-27.824 27.824-27.824h13.912c15.359 0 27.824 12.465 27.824 27.824v13.912c0 15.359-12.465 27.824-27.824 27.824zM795.055 617.239h-136.978c-15.359 0-27.824-12.465-27.824-27.824v-20.186c0-15.373 12.465-27.824 27.824-27.824h136.978c15.359 0 27.824 12.451 27.824 27.824v20.186c0 15.359-12.465 27.824-27.824 27.824z" />
<glyph unicode="&#xe608;" glyph-name="Rocket_Launch" d="M812.379 623.706c-1.855-3.163-5.277-5.14-8.912-5.14-1.642 0-3.209 0.38-4.684 1.156l-71.157 37.335c-7.437 3.893-13.9 9.611-18.675 16.546l-46.992 67.918c-3.118 4.486-2.129 10.661 2.22 14.037 73.956 57.318 138.908 90.213 178.19 90.213 11.756 0 21.063-2.966 27.693-8.805 26.933-23.724 4.289-107.428-57.683-213.26zM777.294 567.954c-25.64-38.126-53.197-74.199-81.909-107.246-44.133-50.809-85.286-85.331-122.773-114.774-2.525-1.566-4.638-3.239-6.053-4.699-10.965-8.547-22.006-16.957-33.184-25.473-19.937-15.193-40.544-30.887-61.82-48.163-2.099-1.703-4.699-2.646-7.315-2.646-2.525 0-4.806 0.867-6.646 2.464l-25.017 22.158c-1.734 1.551-2.737 3.711-2.798 6.114-0.061 2.448 0.821 4.836 2.494 6.722l78.32 88.418c5.095 5.764 8.182 12.775 8.699 19.709 0.532 7.421-1.871 13.885-6.783 18.234-3.711 3.27-8.501 5.019-13.854 5.019-8.364 0-17.17-4.304-23.557-11.528l-78.32-88.434c-1.871-2.114-4.502-3.331-7.224-3.331-1.445 0-3.589 0.35-5.52 2.053l-28.393 25.154c-4.425 3.924-5.079 10.828-1.551 16.409 13.626 21.626 26.477 42.901 39.115 63.843 38.369 63.538 74.61 123.548 124.522 180.137 29.366 33.168 61.592 65.272 95.779 95.429 1.749 1.566 3.665 1.886 4.958 1.886 2.601 0 5.049-1.308 6.555-3.483l41.335-60.177c10.752-15.679 25.321-28.667 42.141-37.563l65.728-34.765c2.068-1.095 3.589-3.011 4.137-5.262 0.547-2.16 0.167-4.365-1.065-6.205zM598.070 257.714l-33.746-52.938c-23.086-36.164-50.171-78.579-70.443-110.637l-1.688-0.456c-4.806 32.94-6.296 78.761-6.707 111.397-0.091 7.132 3.315 14.158 9.109 18.766 17.23 13.657 34.218 26.796 50.977 39.753l25.23 19.572c1.962 1.536 4.349 2.342 6.92 2.342 3.163 0 6.266-1.201 8.745-3.376l10.402-9.17c4.608-3.984 4.106-10.706 1.201-15.253zM336.784 439.417c-9.779-16.257-19.664-32.682-29.899-49.334-3.863-6.311-10.417-10.539-17.55-11.284-28.849-3.163-70.093-6.92-102.759-6.92-2.966 0-5.84 0.030-9.566 0.852 28.256 23.116 65.667 53.927 98.258 80.799 21.124 17.413 40.24 33.168 53.516 44.072 1.886 1.551 4.228 2.357 6.767 2.357 3.224 0 6.555-1.323 9.125-3.619l9.87-8.821c4.821-4.304 4.38-11.452 1.46-16.272l-19.223-31.83zM902.957 874.072c-14.052 12.577-32.651 18.964-55.28 18.964-99.566 0-259.202-122.514-365.444-243.538-29.321-33.381-56.178-68.968-84.525-111.96-1.293-1.962-3.467-3.133-5.84-3.133-1.825 0-3.589 0.7-4.927 1.962l-10.357 9.748c-1.947 1.825-3.711 3.924-5.49 6.022-4.562 5.384-9.748 11.512-17.778 13.2-0.867 0.167-1.734 0.289-2.601 0.365-0.684 0.046-1.369 0.076-2.068 0.076-6.463 0-13.261-2.601-19.101-7.345l-232.589-189.353c-8.745-7.117-13.87-18.097-13.064-27.998 0.897-10.585 8.44-18.234 19.284-19.055l185.292 5.581c7.513 0 14.752-2.722 20.363-7.71l35.328-31.283c3.893-3.452 4.258-9.398 0.806-13.276l-66.017-74.564c-10.843-12.258-11.725-29.275-1.947-37.944 3.726-3.285 8.516-5.034 13.87-5.034 8.364 0 17.17 4.319 23.572 11.558l66.032 74.549c1.764 2.007 4.319 3.163 7.011 3.163 2.296 0 4.517-0.836 6.25-2.388l30.933-27.374c5.87-5.171 9.49-12.349 10.204-20.181l16.85-184.182c1.992-9.946 9.916-16.364 20.211-16.364l0.973 0.015c9.931 0.411 20.211 6.828 26.203 16.348l160.762 254.823c4.395 7.011 6.098 14.98 4.623 21.991-0.198 0.867-0.411 1.734-0.684 2.479-2.616 7.847-9.474 12.212-15.512 16.059-2.266 1.43-4.547 2.889-6.585 4.532l-10.539 8.41c-1.658 1.353-2.631 3.315-2.661 5.429-0.015 1.977 0.791 3.772 2.296 5.049 38.947 33.031 70.747 64.055 100.098 97.634 141.19 161.568 247.112 377.535 172.046 444.723z" />
<glyph unicode="&#xe609;" glyph-name="Sale" d="M883.176 656.546c-8.123-30.267-27.989-55.951-54.555-72.102l1.22 6.184c2.21 11.174-1.343 22.823-9.411 30.851l-117.585 117.151c-8.082 8.069-19.717 11.554-30.891 9.316l-13.628-2.753c10.591 19.961 26.498 36.682 46.594 48.262 28.206 16.259 60.982 20.572 92.321 12.164 2.075-0.57 4.15-1.18 6.184-1.844 61.511-20.029 96.566-84.7 79.75-147.228zM791.912 587.495l-25.521-128.813c-1.153-5.831-4.028-11.228-8.245-15.446l-355.534-356.537c-3.594-3.594-9.37-3.594-12.964-0.041l-220.361 219.574c-3.58 3.566-3.58 9.357-0.027 12.937l355.561 356.551c4.204 4.204 9.587 7.106 15.418 8.286l69.756 14.090c-1.654-24.87 2.671-49.374 12.3-71.695-20.599-24.084-19.731-60.345 3.078-83.1 23.948-23.853 62.84-23.772 86.693 0.176 23.867 23.935 23.799 62.827-0.149 86.68-16.273 16.219-39.367 21.1-60.020 15.229-7.106 18.836-9.479 39.38-6.59 59.843l23.65 4.773c5.587 1.126 11.405-0.624 15.446-4.651l102.803-102.424c4.041-4.014 5.804-9.831 4.706-15.432zM667.371 616.786c8.15 0.353 16.368-2.468 22.592-8.665 5.94-5.926 8.882-13.737 8.842-21.548l-1.573 1.085c-11.811 8.069-21.778 18.009-29.861 29.128zM639.952 595.672c10.537-14.279 23.623-26.904 39.014-37.21-10.659-3.878-23.067-1.627-31.637 6.889-8.204 8.177-10.577 19.921-7.377 30.322zM814.071 836.51c-2.604 0.841-5.234 1.627-7.906 2.346-80.266 21.548-162.809-23.907-188.52-101.881l-86.544-17.466c-11.676-2.36-22.443-8.15-30.837-16.585l-376.295-377.366c-7.146-7.16-7.119-18.754 0.041-25.874l259.266-258.331c7.16-7.119 18.741-7.106 25.874 0.054l376.282 377.366c8.421 8.435 14.171 19.229 16.49 30.905l18.293 92.43c47.259 17.737 83.181 57.009 96.213 105.516 21.548 80.211-23.433 163.189-102.356 188.887zM401.68 273.411c-6.224 6.224-12.516 10.401-18.876 12.503-6.36 2.115-12.639 2.509-18.836 1.207-6.197-1.329-14.361-4.746-24.477-10.306-10.13-5.546-17.263-8.286-21.399-8.218-3.255 0.054-6.048 1.248-8.38 3.58-2.536 2.563-3.743 5.451-3.553 8.679 0.271 5.017 2.753 9.872 7.431 14.564 4.529 4.529 9.059 6.821 13.534 6.875 1.682 0 3.458-0.271 5.316-0.881 6.157-1.993 13.33-1.939 17.67 2.888 4.204 4.692 4.041 12.123-1.275 15.5-6.658 4.231-13.588 6.482-20.789 6.726-10.496 0.366-20.734-4.475-30.756-14.483-6.129-6.129-10.225-12.503-12.272-19.134s-2.048-13.276 0.014-19.934c2.061-6.685 5.614-12.53 10.632-17.548 7.797-7.797 16.842-11.961 27.176-12.476 7.336-0.366 16.639 2.441 27.921 8.435 8.774 4.651 14.51 7.526 17.208 8.611 3.96 1.546 7.323 2.061 10.062 1.519 2.739-0.529 5.275-1.953 7.608-4.285 3.621-3.634 5.479-8.123 5.56-13.466 0.068-5.329-2.482-10.591-7.675-15.798-4.895-4.882-10.306-7.255-16.246-7.106-2.956 0.095-6.116 0.841-9.452 2.278-6.034 2.577-13.452 2.671-17.493-2.482-3.824-4.855-3.146-12.015 2.061-15.337 8.896-5.682 17.52-8.652 25.901-8.909 11.147-0.353 21.778 4.516 31.868 14.605 6.943 6.93 11.527 13.913 13.778 20.965 2.238 7.038 2.17 14.293-0.217 21.765-2.387 7.458-6.401 14.008-12.042 19.663zM442.594 334.903l-12.476-12.476c-2.332-2.332-6.211-1.776-7.797 1.112l-19.487 35.8c-0.922 1.695 0.936 3.58 2.631 2.658l35.99-19.338c2.888-1.546 3.458-5.451 1.139-7.757zM504.851 335.866l-108.702 55.45c-6.387 3.255-14.184 2.034-19.256-3.038-5.058-5.058-6.251-12.856-2.956-19.202l56.29-108.187c2.78-5.329 9.899-6.428 14.13-2.183 5.058 5.058 6.184 12.883 2.766 19.148l-6.862 12.598c-1.871 3.417-1.248 7.662 1.505 10.415l22.606 22.606c2.753 2.753 7.011 3.404 10.455 1.573l12.557-6.563c6.523-3.431 14.537-2.224 19.744 2.983 4.326 4.339 3.187 11.621-2.278 14.401zM556.144 403.687l-27.121-27.121c-2.563-2.563-6.726-2.549-9.289 0l-68.4 68.414c-4.461 4.461-11.662 4.461-16.124 0-4.448-4.448-4.448-11.662 0-16.11l80.361-80.361c5.139-5.139 13.452-5.139 18.592 0l38.58 38.58c4.597 4.584 4.597 12.015 0 16.598-4.584 4.584-12.015 4.584-16.598 0zM628.332 475.868l-31.637-31.637c-2.563-2.563-6.74-2.563-9.303 0l-17.52 17.52c-2.563 2.563-2.563 6.74 0 9.303l27.121 27.121c4.584 4.57 4.584 12.001 0 16.585s-12.015 4.584-16.598 0l-27.121-27.121c-2.563-2.563-6.726-2.563-9.289 0l-12.557 12.557c-2.549 2.563-2.563 6.726 0 9.289l30.078 30.091c4.611 4.584 4.611 12.055 0 16.653-4.597 4.611-12.055 4.611-16.653 0l-41.55-41.55c-5.126-5.126-5.126-13.439 0-18.578l79.94-79.927c5.126-5.139 13.452-5.139 18.578 0l43.109 43.096c4.584 4.584 4.584 12.015-0.014 16.598-4.584 4.584-12.015 4.584-16.585 0z" />
<glyph unicode="&#xe60a;" glyph-name="Hour_Glass" d="M840.459 106.976c-19.93-23.482-55.545-37.36-81.541-47.482l-5.548-2.169c-44.967-18.106-96.473-29.203-157.424-33.886-18.782-1.446-37.643-2.169-56.064-2.169-44.307 0-87.42 4.181-128.112 12.448-59.349 12.055-107.805 31.325-144.018 57.227-14.24 10.216-27.175 20.841-28.888 38.759-2.2 22.759 0.189 44.511 7.12 64.677 26.169 75.852 104.379 125.031 167.232 164.544 16.77 10.483 32.016 20.637 46.665 30.947l5.328 3.756c17.022 11.882 36.323 25.352 42.437 44.024 7.701 23.466-11.018 41.949-28.197 55.419-11.081 8.707-22.853 16.99-34.217 25.022-12.244 8.629-24.88 17.556-36.81 27.034-52.747 42.012-87.734 77.423-111.043 126.084l-8.377 19.159c-1.918 4.385 2.986 8.645 7.057 6.114l17.053-10.593c67.129-30.413 122.092-38.24 226.125-38.9l6.538-0.016c99.302 0 168.474 14.098 236.545 41.902 4.621 2.609 9.682-2.263 7.874-7.246l-3.033-8.33c-20.621-36.166-34.012-60.26-68.936-93.455-20.92-19.851-44.417-39.073-69.848-57.195-4.464-3.175-9.053-6.334-13.69-9.493-16.425-11.222-33.399-22.822-45.879-37.454-8.582-10.091-12.008-20.008-10.515-30.413 3.914-26.845 40.959-50.767 65.447-66.61l6.633-4.275c7.041-4.637 14.146-9.195 21.234-13.768 22.696-14.649 46.177-29.784 68.024-46.445 35.49-27.112 84.701-69.801 102.272-127.64 4.134-13.643 6.255-27.552 6.303-41.399l0.047-3.709c0.204-11.599 0.424-24.77-7.796-34.468zM269.135 769.617c-5.375 11.254-0.409 26.562 14.617 38.995 50.343 34.609 58.72 30.397 94.052 41.069 50.484 15.246 106.375 17.289 167.971 17.289l9.619-0.047c65.305-0.66 122.265-7.576 174.101-21.077 30.051-7.811 39.183-14.68 58.72-25.713 9.965-5.627 38.555-24.755 30.523-46.507-8.283-22.491-54.633-48.928-82.516-56.755-50.594-14.224-107.632-22.271-169.59-23.859-8.597-0.22-17.21-0.314-25.808-0.314-56.284 0-108.952 4.982-156.576 14.837-28.48 5.894-40.519 8.534-61.69 17.163-16.346 6.664-43.113 23.482-53.423 44.92zM792.71 334.83c-22.947 20.197-49.525 37.124-75.223 53.502l-15.607 9.902c-19.678 12.432-39.938 25.242-58.028 40.063-6.711 5.517-7.167 15.764-0.424 21.281 9.65 7.89 20.024 15.041 30.146 22.004 6.004 4.134 11.992 8.236 17.792 12.495 24.33 17.855 47.435 36.244 67.286 56.158 37.957 38.13 47.891 68.543 70.021 105.164 28.071 46.413 43.144 86.477 46.083 122.485 2.908 35.835-31.23 62.853-60.386 79.215-34.484 19.379-60.684 33.006-116.198 42.861-50.845 9.022-102.901 13.611-154.658 13.611-68.543 0-134.414-7.953-195.822-23.623-47.356-12.102-89.824-31.12-119.577-71.026-18.546-24.896-14.806-51.238-8.047-75.977 16.802-61.376 39.419-123.774 95.168-180.45 19.002-19.301 40.173-38.067 62.901-55.749 10.421-8.11 21.25-15.702 32.095-23.309s22.051-15.45 33.572-24.409c7.277-5.674 5.422-16.582-1.855-22.256-10.342-8.032-20.983-15.466-30.13-21.721-10.185-6.994-20.464-13.721-30.947-20.26-62.728-39.168-122.249-79.168-160.757-137.762-23.372-35.568-35.568-75.239-35.301-114.705 0.22-26.657 7.089-46.162 22.303-63.246 13.721-15.419 32.566-29.234 59.333-43.458 74.94-39.843 166.053-60.040 270.778-60.040 20.024 0 40.629 0.754 61.25 2.279 71.718 5.297 136.583 20.275 192.788 44.543 26.924 11.631 57.588 25.808 80.928 46.963 20.904 18.924 29.941 41.557 29.328 73.353-1.587 82.799-37.879 129.652-108.811 192.113zM576.054 505.621c17.305 26.798 43.93 36.307 89.117 69.565 6.9 5.077 0.267 15.937-8.047 13.847-30.806-7.764-69.172-17.179-108.025-17.179-40.676 0-79.388 3.772-123.837 18.201-9.163 2.986-15.199-10.059-7.922-16.346 23.246-20.087 77.958-45.627 95.593-75.003 31.136-51.883 35.851-35.332 63.121 6.916zM784.63 193.885c-25.651 17.949-56.189 31.010-82.799 41.839-27.93 11.379-64.394 23.057-99.176 36.637-30.932 12.087-37.203 18.358-58.94 36.716 0 0-26.578-25.132-46.869-33.808-52.071-22.303-89.070-30.696-147.145-60.276-20.653-10.546-46.382-23.655-58.971-43.050-12.197-18.782 4.401-41.604 22.35-55.451 35.364-27.348 83.082-38.853 120.725-45.816 35.788-6.601 73.4-9.965 111.75-9.965 21.297 0 43.018 1.053 64.582 3.112 49.352 4.699 100.984 12.322 144.411 35.914 39.985 21.737 55.215 37.14 56.205 56.881 0.707 13.438-15.246 29.674-26.122 37.266z" />
<glyph unicode="&#xe60b;" glyph-name="Migration_Cloud-Sync" d="M461.711 100.189c-38.044 9.294-70.137 28.893-100.539 61.394-85.867 91.799-85.111 227.711 1.779 319.584 33.611 35.539 91.488 66.38 133.926 71.366l28.555 3.355 0.078 27.797c0.091 33.991 4.595 52.273 12.877 52.273 7.641 0 144.781-136.673 144.781-144.288 0-7.503-137.383-143.98-144.935-143.98-8.042 0-12.631 18.395-12.723 50.991l-0.078 26.515-17.482-3.497c-41.337-8.267-80.569-57.57-80.301-100.913 0.266-43.175 39.865-93.978 78.97-101.315 32.118-6.025 65.944 0.441 87.229 16.676 38.916 29.684 51.741 66.84 39.983 115.849l-7.261 30.269 42.894 39.942c23.591 21.968 45.503 39.087 48.693 38.043 10.912-3.573 30.38-38.169 41.208-73.227 24.602-79.653 4.8-163.267-53.403-225.492-31.113-33.262-62.193-51.857-102.95-61.597-38.381-9.172-103.195-9.056-141.302 0.253zM192.945 258.173c-53.103 16.616-105.745 65.246-119.13 110.051-10.082 33.747-12.567 90.352-5.34 121.636 14.065 60.888 47.465 97.607 112.887 124.108l35.841 14.518 8.994 32.291c29.683 106.571 110.385 185.798 210.618 206.769 76.595 16.026 165.789 5.998 224.369-25.225 43.408-23.135 90.777-70.322 113.621-113.181 13.358-25.064 21.371-34.098 32.4-36.533 28.029-6.189 52.855-14.674 73.894-25.256 25.864-13.008 70.057-53.621 85.45-78.527 35.527-57.483 34.092-180.203-2.757-235.885-33.447-50.542-92.816-90.832-142.014-96.378l-20.836-2.184-3.56 24.402c-4.132 28.323 1.346 30.113 48.784 54.041 80.415 40.562 110.374 129.911 70.39 209.927-25.598 51.224-82.573 87.771-136.835 87.771-24.377 0-34.209 8.119-47.492 39.216-41.218 96.496-127.084 149.812-233.112 144.744-38.758-1.853-53.937-5.367-84.049-19.459-69.828-32.676-117.704-96.66-130.892-174.934-3.556-21.107-10.221-42.131-14.81-46.719s-22.436-10.637-39.658-13.441c-67.346-10.96-106.917-55.842-106.645-120.958 0.279-66.702 55.862-123.748 120.708-123.882 18.364-0.065 27.247-15.12 24.982-42.413-1.647-19.836-2.075-20.185-26.15-21.273-13.462-0.61-35.807 2.44-49.658 6.773z" />
<glyph unicode="&#xe631;" glyph-name="Film" d="M564.463 496.309c0 55.526 45.023 100.533 100.565 100.533 55.558 0 100.549-45.007 100.549-100.533s-44.991-100.581-100.549-100.581c-55.542 0-100.565 45.055-100.565 100.581zM446.313 612.209c-55.574 0-100.612 45.023-100.612 100.581 0 55.51 45.039 100.549 100.612 100.549 55.479 0 100.533-45.039 100.533-100.549 0-55.558-45.055-100.581-100.533-100.581zM398.803 495.58c0 27.85 22.607 50.441 50.457 50.441s50.425-22.591 50.425-50.441c0-27.85-22.575-50.441-50.425-50.441s-50.457 22.591-50.457 50.441zM446.313 179.263c-55.574 0-100.612 45.007-100.612 100.565 0 55.526 45.039 100.549 100.612 100.549 55.479 0 100.533-45.023 100.533-100.549 0-55.558-45.055-100.565-100.533-100.565zM232.082 398.010c-55.526 0-100.581 45.055-100.581 100.581s45.055 100.549 100.581 100.549c55.558 0 100.549-45.023 100.549-100.549s-44.991-100.581-100.549-100.581zM959.657 169.521h-253.899c-4.927 0-8.159 5.766-4.293 8.84 93.278 74.251 153.097 188.726 153.097 317.22 0 223.8-181.486 405.27-405.301 405.27-223.863 0-405.27-181.47-405.27-405.27 0-219.348 174.246-397.871 391.915-404.921 0.412-0.016 1.473 0.143 1.172-0.143-0.063-0.063-0.016-0.206 0.079-0.206h522.5c17.49 0 31.684 14.179 31.684 31.684v15.842c0 17.49-14.194 31.684-31.684 31.684z" />
<glyph unicode="&#xe632;" glyph-name="Flag" d="M420.96 402.203c-45.211 0-83.827 7.376-121.515 23.216-13.956 5.874-22.922 20.567-22.848 37.467l0.515 111.268c0.28 41.825 0.53 80.691 0.707 122.634l0.648 111.18c0.059 7.876 6.419 14.266 14.221 14.266 1.855 0 3.71-0.368 5.477-1.119 38.763-16.312 78.453-23.908 124.916-23.908l3.798 0.015c49.068 0.397 93.278 9.083 133.734 18.417 21.258 4.858 42.222 10.188 63.187 15.532 20.935 5.329 41.869 10.644 63.054 15.502 40.353 9.275 84.254 17.917 131.894 18.299l4.019 0.015c45.005 0 83.518-7.376 121.161-23.246 13.956-5.874 22.907-20.581 22.819-37.467 0 0-1.016-199.497-1.251-233.887l-0.633-111.254c-0.044-7.876-6.404-14.295-14.207-14.295-1.855 0-3.71 0.397-5.491 1.148-38.733 16.327-78.335 23.923-124.606 23.923l-4.107-0.015c-48.45-0.383-92.881-9.025-133.69-18.314-21.406-4.917-42.502-10.305-63.584-15.694-20.817-5.315-41.619-10.644-62.715-15.502-37.983-8.76-83.356-17.784-131.923-18.167l-3.577-0.015zM238.201 15.423c0-13.809-11.189-24.983-24.983-24.983h-14.81c-13.794 0-24.983 11.174-24.983 24.983v795.058c0 13.794 11.189 24.998 24.983 24.998h14.81c13.794 0 24.983-11.203 24.983-24.998v-795.058z" />
<glyph unicode="&#xe633;" glyph-name="Interact" d="M356.95 10.516h139.481l-12.909 232.464c0 0-25.269 31.22-101.521 95.787-76.264 64.579-115.563 129.673-145.729 100.662-30.132-29.011 56.912-97.309 76.47-115.483 19.558-18.185 1.019-27.889-9.132-20.039-10.117 7.839-89.001 76.401-93.693 115.666-4.704 39.265-24.765 116.535-62.039 148.030-37.251 31.506-51.029 3.078-40.833-28.576 10.185-31.654 40.455-130.326 40.455-130.326s10.975-42.744 61.283-94.277c50.343-51.544 155.903-134.091 155.903-134.091s3.902-41.954-7.736-169.819zM649.713 10.516h-139.481l12.909 232.464c0 0 25.269 31.22 101.521 95.787 76.252 64.579 115.563 129.673 145.706 100.662 30.155-29.011-56.889-97.309-76.447-115.483-19.558-18.185-1.019-27.889 9.132-20.039 10.128 7.839 88.989 76.401 93.693 115.666s24.765 116.535 62.027 148.030c37.285 31.506 51.041 3.078 40.844-28.576-10.185-31.654-40.466-130.326-40.466-130.326s-10.975-42.744-61.295-94.277c-50.297-51.544-155.903-134.091-155.903-134.091s-3.868-41.954 7.759-169.819zM673.943 456.524c-29.995-29.984-67.475-52.334-109.337-64.133 21.046 29.8 38.178 63.687 50.606 100.64h88.955c-8.915-13.126-19.020-25.36-30.224-36.507zM288.688 493.031h82.947c12.085-36.049 28.748-69.18 49.072-98.454-38.876 12.302-73.666 33.726-101.818 61.947-11.181 11.147-21.286 23.38-30.201 36.507zM318.889 811.521c28.198 28.164 62.943 49.645 101.818 61.901-20.233-29.194-36.839-62.313-48.981-98.179h-82.867c8.938 12.989 18.951 25.154 30.029 36.278zM703.972 775.243h-88.829c-12.405 36.816-29.617 70.622-50.56 100.365 41.885-11.799 79.365-34.172 109.36-64.087 11.124-11.124 21.137-23.289 30.029-36.278zM637.699 643.533c-0.835 39.597-6.683 77.648-16.914 113.205h94.609c18.929-33.657 30.315-72.178 31.86-113.205h-109.555zM637.699 624.478h109.555c-1.545-41.439-13.184-80.269-32.456-114.189v1.167h-93.876c10.139 35.511 15.942 73.528 16.777 113.022zM505.955 511.456v113.022h113.251c-0.835-39.7-6.935-77.694-17.452-113.022h-95.799zM505.955 493.031h89.676c-14.145-40.157-34.172-76.321-58.617-106.762-10.197-1.648-20.542-2.701-31.059-3.101v109.864zM367.618 624.478h119.225v-113.022h-101.727c-10.551 35.328-16.617 73.322-17.498 113.022zM349.136 643.533h-103.569c1.602 41.027 12.989 79.548 31.86 113.205h88.589c-10.162-35.557-16.033-73.609-16.88-113.205zM486.843 756.738v-113.205h-119.225c0.881 39.745 6.947 77.866 17.612 113.205h101.612zM486.843 775.243h-95.581c14.042 39.505 33.646 75.085 57.667 105.24 12.325 2.392 25.028 3.811 37.914 4.349v-109.589zM601.616 756.738c10.632-35.339 16.754-73.46 17.59-113.205h-113.251v113.205h95.661zM505.955 775.243v109.589c10.517-0.446 20.863-1.488 31.059-3.101 24.353-30.418 44.335-66.502 58.514-106.488h-89.573zM245.567 624.478h103.569c0.847-39.562 6.672-77.511 16.789-113.022h-88.612c-18.871 33.623-30.144 72.064-31.746 113.022zM448.894 387.482c-24.033 30.247-43.705 65.964-57.701 105.549h95.65v-109.864c-12.932 0.515-25.6 1.934-37.949 4.314zM496.445 904.115c-149.254 0-270.15-120.919-270.15-270.173 0-149.128 120.896-270.070 270.15-270.070 149.163 0 270.093 120.941 270.093 270.070 0 149.254-120.93 270.173-270.093 270.173z" />
<glyph unicode="&#xe634;" glyph-name="Interaction" d="M699.466 64.003c0-0.086-2.354 119.988-7.277 125.981-4.752 6.121-5.18 30.093-59.545 63.997 5.865 16.524 0.428 21.061 1.37 20.633 1.584-0.856-0.342 11.215-0.342 11.215s-37.542 16.352-37.114 46.574c0.385 30.093 0 32.576 0 32.576s2.226 55.949 50.983 55.949h48.329c43.792 0 48.072-55.949 48.072-55.949v-36.943c0 0-13.356-24.314-40.795-39.639 0 0-2.012-12.114-0.428-11.429 1.584 0.899 1.669-54.365 49.357-61.385 47.644-7.020 61.685-36.472 70.632-45.076 9.032-8.604 26.412-107.66 26.412-107.66l-149.654 1.156zM495.062 239.726c73.457-10.745 122.814-57.233 132.574-73.714 18.321-31.121 16.652-103.165 16.652-103.165h-506.665c0 0-2.354 76.582 21.66 107.66 13.784 13.227 57.19 58.517 130.604 69.476 73.457 10.787 51.24 92.078 53.68 90.965 2.312-1.156-0.599 17.422-0.599 17.422s-53.166 51.497-52.524 97.814c0.514 46.317 0 70.375 0 70.375s8.476 109.971 83.602 109.971l42.336-20.248c67.464 0 78.337-89.724 78.337-89.724v-77.138c0 0-8.305-65.837-50.684-89.552 0 0-2.911-18.664-0.556-17.422 2.397 1.113-21.917-81.762 51.583-92.72zM757.812 520.327c-14.768 0-35.444 4.109-49.399 6.207-56.206-71.145-156.032-52.696-156.032-52.696 62.712 29.708 73.671 81.847 62.541 88.568-49.057 28.724-72.301 61.343-72.301 110.614 0 86.856 94.475 153.891 215.191 153.891 120.759 0 194.301-67.036 194.301-153.891 0-86.984-73.543-152.693-194.301-152.693z" />
<glyph unicode="&#xe635;" glyph-name="Action" d="M163.072 444.883c-18.057-9.758-41.445-4.074-51.656 12.776l-35.309 57.339c-10.261 17.001-3.923 38.528 14.184 48.688l48.286 26.356 134.546-83.645-110.051-61.514zM357.22 556.444l-134.496 83.745 106.53 53.064 151.999-75.698-124.034-61.112zM659.71 707.236l-100.847-50.147-134.798 83.745 101.199 49.996 134.445-83.595zM593.468 836.5l82.89 38.126c18.409 10.16 39.987 0.251 50.599-16.598l67.097-83.796-67.097-33.398-133.49 95.666zM894.499 192.943l-609.003-170.408c-18.007-5.030-36.566 4.476-40.993 20.773l-101.35 355.252c-4.577 16.296 6.337 32.844 24.897 37.321l121.62 36.969-33.599-134.194 101.148 33.599 33.548 134.144 100.645 33.498-50.247-134.093 100.595 33.498 34.001 133.741 83.947 33.548-33.85-133.741 101.098 33.548 16.85 133.792c0 0 49.443 30.128 82.186 32.744 14.385-4.074 35.309-99.891 35.309-99.891l67.55-328.946c4.577-15.844-16.246-46.676-34.353-51.153z" />
<glyph unicode="&#xe636;" glyph-name="Browser" d="M841.482 130.014h-105.831v52.866h105.831v-52.866zM841.482 235.895h-105.831v52.784h105.831v-52.784zM682.768 130.014h-476.233v52.866h476.233v-52.866zM682.768 235.895h-476.233v52.784h476.233v-52.784zM788.567 606.151h-529.154v-211.633h529.154v211.633zM841.482 341.643h-634.947v317.474h634.947v-317.474zM894.349 712.038h-740.65v-634.903h740.65v634.903zM416.641 817.688h-51.306v-51.175h51.306v51.175zM310.76 817.688h-51.355v-52.784h51.355v52.784zM206.538 817.688h-52.834v-52.784h52.834v52.784zM894.36 24.211h-740.65c-29.201 0-52.965 23.666-52.965 52.866v740.605c0 29.299 23.764 53.014 52.965 53.014h740.65c29.201 0 52.834-23.715 52.834-53.014v-740.605c0-29.201-23.633-52.866-52.834-52.866z" />
<glyph unicode="&#xe637;" glyph-name="Databases" d="M334.44 443.133c-142.292 0-257.568 43.235-257.568 96.507 0 11.229 5.154 22.187 14.701 32.223 35.315-37.594 130.791-64.392 242.867-64.392 112.184 0 207.552 26.798 242.975 64.392 9.439-10.036 14.701-20.994 14.701-32.223 0-53.271-115.385-96.507-257.677-96.507zM817.624 314.24c-88.912 0-161.061 43.181-161.061 96.669 0 11.229 3.255 22.025 9.114 32.223 22.133-37.594 81.697-64.446 151.948-64.446 69.98 0 129.652 26.853 151.677 64.446 5.967-10.199 9.222-20.994 9.222-32.223 0-53.488-72.149-96.669-160.899-96.669zM334.44 314.24c-142.292 0-257.568 43.181-257.568 96.669 0 11.229 5.154 22.025 14.701 32.223 35.315-37.594 130.791-64.446 242.867-64.446 112.184 0 207.552 26.853 242.975 64.446 9.439-10.199 14.701-20.994 14.701-32.223 0-53.488-115.385-96.669-257.677-96.669zM817.624 185.293c-88.912 0-161.061 43.235-161.061 96.724 0 11.338 3.255 22.079 9.114 32.223 22.133-37.594 81.697-64.501 151.948-64.501 69.98 0 129.652 26.907 151.677 64.501 5.967-10.144 9.222-20.885 9.222-32.223 0-53.488-72.149-96.724-160.899-96.724zM334.44 185.293c-142.292 0-257.568 43.235-257.568 96.724 0 11.338 5.154 22.079 14.701 32.223 35.315-37.594 130.791-64.501 242.867-64.501 112.184 0 207.552 26.907 242.975 64.501 9.439-10.144 14.701-20.885 14.701-32.223 0-53.488-115.385-96.724-257.677-96.724zM817.624 443.133c-88.912 0-161.061 43.235-161.061 96.507 0 53.434 72.149 96.669 161.061 96.669 88.749 0 160.899-43.235 160.899-96.669 0-53.271-72.149-96.507-160.899-96.507zM334.44 571.862c-142.292 0-257.568 43.344-257.568 96.507 0 53.434 115.276 96.669 257.568 96.669s257.677-43.235 257.677-96.669c0-53.163-115.385-96.507-257.677-96.507z" />
<glyph unicode="&#xe638;" glyph-name="Download" d="M566.554 473.41v101.591c0 11.38-8.21 24.579-26.918 24.579h-49.418c-23.020 0-28.113-11.38-28.113-23.332v-102.838h-66.879c-19.487 0-30.867-12.575-18.292-33.102 27.853-47.496 68.437-104.501 111.256-155.582 19.902-24.631 36.219-21.098 53.368 1.819 43.546 48.743 80.233 102.734 108.138 150.853 11.796 16.837 5.145 33.569-18.188 36.012h-64.956zM777.843 227.669v-0.572h-502.966v0.572c-114.166 8.938-204.533 103.929-204.533 219.343 0 121.286 99.356 219.759 221.681 219.759 17.876 0 35.336-2.338 51.913-6.288 37.155 68.905 110.737 116.089 195.231 116.089 110.997 0 202.974-81.013 218.927-186.657 4.781 0.624 9.977 0.624 15.382 0.624 100.915 0 183.124-81.117 183.124-181.357 0-99.201-79.818-179.174-178.758-181.513z" />
<glyph unicode="&#xe639;" glyph-name="Full-Screen" d="M647.234 312.226l92.791-93.722c-12.325-12.599-23.444-23.444-31.113-31.113-5.916-6.354-3.451-16.378-3.451-16.378 0.383-11.448 9.86-20.979 21.253-21.637l127.246-7.559c11.174-0.657 19.446 8.216 18.734 19.007l-7.285 129.272c-0.876 10.681-10.024 20.212-21.144 20.87 0 0-10.517 1.917-17.528-5.039-7.504-7.614-19.281-19.172-31.88-32.318l-93.175 94.38c-8.216 8.216-19.555 10.134-25.909 3.725l-33.304-33.578c-5.642-5.587-4.053-17.693 4.766-25.909zM642.468 528.866l33.797-32.921c6.135-6.464 17.583-4.437 26.457 3.725l93.339 93.175c12.653-12.106 23.718-23.335 31.442-30.401 6.245-6.957 16.104-4.382 16.104-4.382 11.777 1.205 20.925 10.079 21.801 21.527l7.285 127.191c0.712 10.791-8.162 19.719-19.336 19.062l-128.231-6.957c-11.010-1.315-20.925-10.791-21.582-21.527 0 0-2.246-10.134 4.766-17.090 7.559-8.271 19.774-19.61 32.373-32.428l-93.448-92.956c-8.819-8.271-10.408-20.322-4.766-26.019zM132.883 577.563c0.274-10.736 10.134-20.212 21.253-20.87 0 0 10.408-2.574 17.090 4.382 7.833 8.436 19.61 19.665 32.318 33.030l92.846-94.434c8.381-8.162 19.884-10.188 25.581-3.725l33.304 33.578c6.299 5.752 4.053 17.748-4.218 25.964l-92.517 93.722c12.051 12.653 22.842 23.444 30.072 31.058 6.683 6.299 4.163 16.488 4.163 16.488-0.548 11.339-10.024 20.815-21.198 21.472l-127.3 7.614c-11.12 0.657-19.665-8.271-18.679-19.062l7.285-129.217zM355.495 338.847l-33.523 32.866c-6.135 6.409-18.131 4.492-26.347-3.725l-93.668-93.229c-12.489 11.996-23.554 22.897-30.73 30.51-6.683 6.957-17.090 4.382-17.090 4.382-11.12-1.15-20.322-10.681-21.253-21.472l-7.285-127.355c-0.986-10.791 7.559-19.665 19.007-19.007l128.67 7.066c11.12 1.15 20.486 10.024 21.472 21.472 0 0 1.917 10.079-4.711 17.035-8.381 7.669-19.665 19.665-32.647 32.318l93.668 93.175c8.929 8.216 10.517 19.665 4.437 25.964zM860.971 60.035h-700.535c-64.581 0-116.619 52.64-116.619 116.619v514.405c0 63.869 52.038 116.509 116.619 116.509h700.535c64.362 0 116.948-52.64 116.948-116.509v-514.405c0-63.979-52.585-116.619-116.948-116.619z" />
<glyph unicode="&#xe63b;" glyph-name="Paintbrush_Web-Design" d="M136.86 38.159c-50.026 25.89-59.85 93.54-23.959 164.997 32.293 64.294 52.589 83.412 127.476 120.076 38.226 18.716 75.171 40.292 82.098 47.947 17.309 19.126 14.875 49.191-9.99 123.407l-20.804 62.097 338.62 338.62 327.801-327.801-339.592-339.592-44.234 17.696c-24.329 9.733-59.503 21.221-78.165 25.529-47.319 10.922-59.749 0.956-99.967-80.148-37.663-75.952-70.194-111.649-127.175-139.549-50.514-24.734-100.304-29.739-132.109-13.279zM248.829 81.736c51.44 24.18 80.857 55.806 114.46 123.059 45.901 91.864 54.226 100.626 98.555 103.727 27.597 1.929 50.375-2.173 92.232-16.612l55.584-19.175 81.358 82.087-273.895 273.651-82.77-84.629 12.544-35.986c6.899-19.792 16.081-53.969 20.405-75.947 13.5-68.622-0.949-86.983-111.402-141.547-70.207-34.683-102.623-69.816-122.385-132.643-26.351-83.776 25.731-118.094 115.314-75.985zM184.802 124.003c-10.941 13.183-6.922 44.882 6.778 53.453 17.754 11.109 45.905 0.027 50.945-20.051 2.463-9.813 1.443-22.694-2.27-28.625-9.053-14.469-44.851-17.553-55.454-4.777zM749.439 412.865l28.395 27.868-17.855 15.358c-17.522 15.072-17.703 16.082-9.716 54.159 4.476 21.34 6.51 41.436 4.52 44.657s-24.28 3.936-49.533 1.589c-42.942-3.991-46.634-3.238-57.051 11.634-13.579 19.387-14.36 57.444-1.809 88.111 18.686 45.652 19.593 53.233 6.335 52.943-6.757-0.147-29.015-9.272-49.462-20.277-47.158-25.38-81.727-26.578-99.912-3.46l-13.020 16.552-45.484-46.928 134.91-135.037c74.201-74.27 136.344-135.037 138.097-135.037s15.965 12.541 31.583 27.868zM818.213 489.238c10.039 5.285 33.399 25.109 51.912 44.054l33.659 34.445-273.452 273.452-54.832-54.832c-44.755-44.755-53.991-57.481-50.256-69.249 6.241-19.664 17.28-18.269 73.121 9.241 54.051 26.628 63.212 28.052 84.507 13.136 19.123-13.394 19.265-35.243 0.574-88.465-20.367-57.997-16.751-63.751 36.913-58.74 38.309 3.577 45.015 2.374 57.755-10.366 15.464-15.464 18.105-38.806 8.271-73.094-8.936-31.159-0.28-36.485 31.825-19.583z" />
<glyph unicode="&#xe63c;" glyph-name="Pencil" d="M146.69 88.962l125.686 35.971-89.716 90.243-35.971-126.214zM884.036 664.599l-570.89-570.151-238.451-76.899 77.532 238.398 569.888 570.89 161.921-162.237zM922.486 705l-8.861-9.177-160.708 161.13 8.544 9.019c0 0 38.766 50.581 93.355 50.581 24.104 0 51.794-9.652 80.222-38.397 94.146-94.463-12.553-173.155-12.553-173.155z" />
<glyph unicode="&#xe63d;" glyph-name="Refresh_Two" d="M619.732 130.764h-135.648v-132.469l-392.052 228.683 392.052 234.875v-132.469h132.469c261.815 0 331.2 198.676 331.2 198.676 0-335.216-328.021-397.295-328.021-397.295zM947.753 696.672l-392.164-234.819v132.469h-132.469c-261.703 0-331.089-198.731-331.089-198.731 0 335.328 327.91 397.295 327.91 397.295h135.648v132.581l392.164-228.795z" />
<glyph unicode="&#xe63e;" glyph-name="Upload" d="M807.666 233.24v-0.663h-194.614c-16.637 0-30.344 12.768-30.344 28.078v121.433h75.060c23.933 0 29.405 18.571 17.245 35.872-32.611 45.987-88.878 125.855-122.76 174.439-17.742 24.928-40.68 21.722-55.217 0-33.053-47.258-88.491-125.855-121.267-172.615-14.537-20.395-14.813-37.696 11.607-37.696h78.597v-124.031c0-13.929-13.708-25.481-32.611-25.481h-160.345v0.663c-121.82 9.507-217.718 110.545-217.718 233.304 0 129.006 105.515 233.747 235.57 233.747 19.069 0 37.751-2.487 55.051-6.688 39.63 73.291 118.062 123.478 207.824 123.478 118.117 0 215.894-86.17 233.083-198.538 5.527 0.608 10.889 0.608 16.416 0.608 107.505 0 194.614-86.225 194.614-192.9 0-105.46-84.511-190.524-190.192-193.011z" />
<glyph unicode="&#xe63f;" glyph-name="Upload_Drag-and-Drop" d="M605.551 383.021v-112.266h-168.281v112.266h-112.030l196.194 192.605 196.336-192.605h-112.219zM157.005 383.021h-56.11v168.187h56.11v-168.187zM157.005 663.333h-56.11v168.14h168.234v-56.062h-112.125v-112.077zM100.896 46.506v224.249h56.11v-168.234h112.125v-56.015h-168.234zM381.207 831.472h280.453v-56.11h-280.453v56.11zM381.207 102.521h280.453v-56.015h-280.453v56.015zM886.004 775.41h-112.172v56.062h168.281v-224.202h-56.11v168.14zM886.004 495.193h56.11v-168.329h-56.11v168.329zM886.004 46.506h-112.172v56.015h112.172v112.172h56.11v-168.187h-56.11z" />
<glyph unicode="&#xe640;" glyph-name="Barcode" d="M84.092 121.386h54.385v654.525h-54.385v-654.525zM738.582 121.386h54.382v654.525h-54.382v-654.525zM629.56 121.386h54.382v654.525h-54.382v-654.525zM356.785 121.386h54.382v654.525h-54.382v-654.525zM302.401 775.911h-109.111v-654.525h109.111v654.525zM575.176 775.911h-109.195v-654.525h109.195v654.525zM956.891 775.911h-109.109v-654.525h109.109v654.525z" />
<glyph unicode="&#xe641;" glyph-name="Calendar_Single-Day" d="M437.433 807.584v62.668h-62.51v-125.177h62.51v62.51zM312.361 807.584v62.668h-62.615v-125.177h62.615v62.51zM812.648 807.584v62.668h-62.562v-125.177h62.562v62.51zM687.682 807.584v62.668h-62.562v-125.177h62.562v62.51zM562.61 807.584v62.668h-62.562v-125.177h62.562v62.51zM374.923 494.72v-62.457h62.51v-250.354h62.615v312.811h-125.125zM562.61 494.72v-62.457h62.51v-250.354h62.562v312.811h-125.072zM124.569 745.074v-688.343l62.72-62.615h687.974l62.562 62.615v688.343l-62.562 62.51v-125.177h-687.974v125.177l-62.72-62.51zM187.289 56.731v563.271h687.974v-563.271h-687.974z" />
<glyph unicode="&#xe642;" glyph-name="Close_Exit" d="M715.495 645.805l-6.221 5.881c-13.803 13.074-48.604 22.601-62.699 9.429l-118.885-117.184-119.079 104.109c-13.901 13.074-39.126 26.246-52.832 13.074l-26.246-25.857c-13.755-13.074-13.755-39.32 0-52.055l118.69-117.232-118.69-117.329c-13.755-12.686 0-41.070 12.977-52.006 13.269-10.547 26.683-22.212 39.855-25.906 12.686-3.645 26.246 0 39.709 13.074l105.616 104.158 118.885-104.158c14.095-13.074 37.571-13.074 52.881 0l26.683 25.857c9.526 10.304 15.748 37.96-13.269 65.226l-105.859 91.083 119.128 117.232c9.526 12.734 3.256 49.965-10.644 62.602zM518.455 54.104c-229.021 0-414.298 185.326-414.298 414.347 0 228.778 185.277 414.395 414.298 414.395 228.729 0 414.541-185.618 414.541-414.395 0-229.021-185.812-414.347-414.541-414.347z" />
<glyph unicode="&#xe643;" glyph-name="Crop" d="M340.904 351.701v293.769h293.769v-58.675h-58.774v-58.823h-58.724v-58.675h-58.724v-58.823h-58.774v-58.774h-58.774zM810.944 645.47v117.547h-470.040v176.271h-117.498v-176.271h-176.073v-117.547h176.073v-469.842h470.040v-176.321h117.498v176.321h176.123v117.498h-176.123v352.345zM634.673 586.795h58.774v-293.67h-293.769v58.576h58.774v58.774h58.724v58.823h58.724v58.675h58.774v58.823zM869.569 821.79h-58.625v-58.774h58.625v58.774zM869.569 821.79h58.774v58.675h-58.774v-58.675z" />
<glyph unicode="&#xe644;" glyph-name="Dislike" d="M795.644 870.459h43.291c36.956 0 67.074-22.626 67.074-50.582v-279.106c0-28.157-30.118-50.833-67.074-50.833h-43.291c-37.157 0-67.376 22.676-67.376 50.833v279.106c0 27.956 30.219 50.582 67.376 50.582zM83.976 473.395c7.039 27.403 42.789 49.677 22.425 70.041-20.665 20.766-13.928 61.795 6.738 82.108 20.313 20.766-5.229 46.359-8.799 75.27-3.469 29.112 17.447 37.71 35.8 54.705 18.855 17.246 0 18.855 12.168 68.582 11.866 49.677 90.756 75.32 208.764 75.32 117.706 0 341.555-49.677 341.555-49.677v-347.337c0 0-70.091 18.755-102.321-70.141-36.051-45.252-40.375-95.231-50.833-121.276-10.81-26.297-52.945-67.476-75.923-80.7-47.666-27.403-42.437-182.97-42.437-182.97s-1.961-3.469-41.28-5.43c-38.967-1.458-108.756 86.331-69.789 176.333 51.185 102.924 59.884 154.109 47.716 160.948-12.268 6.788-127.964 0-186.691 3.369-57.822 3.419-103.728 63.353-97.091 90.857z" />
<glyph unicode="&#xe645;" glyph-name="Edit" d="M385.975 334.338v112.334l112.531-112.334h-112.531zM948.236 820.875l-378.276-378.423c-20.955-20.857-54.867-20.857-75.773 0-20.906 21.004-20.906 54.867 0 75.822l378.325 378.227c21.004 20.906 54.916 20.906 75.724 0 20.906-20.857 20.906-54.719 0-75.626zM779.661-4.873h-563.733c-93.342 0-169.066 75.724-169.066 169.066v563.782c0 93.391 75.724 169.115 169.066 169.115h394.667l-112.727-112.727h-281.94c-31.065 0-56.437-25.323-56.437-56.388v-563.782c0-30.967 25.372-56.241 56.437-56.241h563.733c31.163 0 56.437 25.274 56.437 56.241v281.891l112.727 112.776v-394.667c0-93.342-75.724-169.066-169.164-169.066z" />
<glyph unicode="&#xe646;" glyph-name="Expand" d="M383.438 546.357c-8.928-9.138-26.679-6.039-39.598 6.775l-143.372 145.052c-20.009-20.009-37.76-38.285-49.891-50.364-10.661-10.398-26.469-6.67-26.469-6.67-17.226 0.578-31.668 15.755-32.823 32.823l-11.239 198.567c-1.155 17.646 12.394 30.985 29.2 29.725l196.362-11.449c17.331-0.63 31.878-15.808 32.718-32.823 0 0 3.886-15.808-5.987-25.576-11.449-12.079-28.307-29.094-47.265-47.896l143.267-145.84c13.129-12.709 15.808-30.88 6.67-40.018l-51.572-52.307zM946.684 6.533l-196.151 11.449c-16.805 1.365-31.773 16.438-32.613 33.453 0 0-3.781 15.913 5.934 25.471 11.606 11.554 28.412 29.2 47.318 48.001l-143.004 145.21c-12.919 12.604-15.598 30.88-6.67 40.018l51.309 52.202c9.401 9.873 27.046 6.145 39.703-6.67l143.162-145.157c19.694 20.744 37.55 38.285 49.681 50.469 10.136 10.293 26.154 7.3 26.154 7.3 17.121-1.208 31.668-15.808 32.823-33.453l11.449-197.832c0.735-17.646-12.289-31.090-29.094-30.46z" />
<glyph unicode="&#xe647;" glyph-name="File_Copy" d="M243.439 251.709h192.394c6.186 0 10.868-7.078 10.868-16.887v-15.884c0-9.14-4.682-16.33-10.868-16.33h-192.394c-5.908 0-10.868 7.19-10.868 16.33v15.884c0 9.809 4.96 16.887 10.868 16.887zM247.507 350.358h266.911c7.859 0 14.714-7.859 14.714-16.776v-16.665c0-8.472-6.855-16.219-14.714-16.219h-266.911c-8.36 0-14.937 7.747-14.937 16.219v16.665c0 8.917 6.577 16.776 14.937 16.776zM243.439 464.39h192.394c6.186 0 10.868-7.134 10.868-16.107v-16.107c0-9.698-4.682-16.665-10.868-16.665h-192.394c-5.908 0-10.868 6.967-10.868 16.665v16.107c0 8.973 4.96 16.107 10.868 16.107zM545.685 612.030h-296.45c-9.308 0-16.665 6.967-16.665 16.665v16.107c0 9.252 7.357 16.107 16.665 16.107h296.45c9.14 0 16.219-6.855 16.219-16.107v-16.107c0-9.698-7.078-16.665-16.219-16.665zM545.685 514.161h-296.45c-9.308 0-16.665 6.855-16.665 15.884v16.887c0 8.36 7.357 16.107 16.665 16.107h296.45c9.14 0 16.219-7.747 16.219-16.107v-16.887c0-9.029-7.078-15.884-16.219-15.884zM216.185 743.396c-18.392 0-32.883-14.658-32.883-32.772v-656.159c0-17.445 14.491-32.103 32.883-32.103h444.87c18.281 0 33.050 14.658 33.050 32.103v623.108c2.452 33.050-33.831 65.822-66.156 65.822h-411.764zM742.371 693.904h0.78v-689.711c0-22.572-8.583-30.932-31.155-30.932h-542.851c-22.572 0-35.168 12.93-35.168 35.503v756.647c0 22.517 4.57 27.087 27.533 27.087h483.327c62.422-8.472 92.463-42.581 97.535-98.594zM875.074 135.67c0-22.517-8.583-31.657-31.657-31.657h-50.439v49.046c17.891 0 32.493 14.937 32.493 32.883v622.551c0 33.663-31.657 65.878-65.488 65.878h-412.21c-17.779 0-32.605-15.048-32.605-32.883h-49.659v54.118c0 23.185 5.072 27.644 27.644 27.644h466.83c83.88 0 115.091-33.441 115.091-114.757v-672.823z" />
<glyph unicode="&#xe648;" glyph-name="Home2" d="M256.497 438.163v-173.802h112.305c-3.758 16.594-4.393 26.99-4.393 26.99s28.015 84.387 115.917 146.812h-223.829zM488.233 901.83l-463.569-463.667 57.934-57.983 57.983 57.983v-347.653h293.623c-24.892 17.082-44.463 36.605-60.081 56.519l-178.341 1.415 0.098 345.115 20.645 20.499 273.515 259.068 292.354-281.275v-16.204c50.711-23.574 88.292-58.568 114.989-91.904l54.517 54.42-463.667 463.667zM604.15 235.419c0-48.075 38.948-86.974 86.925-86.974 48.075 0 86.974 38.899 86.974 86.974 0 48.026-38.899 86.925-86.974 86.925-47.977 0-86.925-38.899-86.925-86.925zM662.132 264.361h57.983v-57.983h-57.983v57.983zM430.299 206.427c0 0 116.746-173.9 260.776-173.9s260.825 173.9 260.825 173.9c0 0-116.795 173.753-260.825 173.753s-260.776-173.753-260.776-173.753zM887.084 206.427c-128.070-158.428-262.045-161.014-391.774 0 64.132 79.604 134.219 117.235 200.158 117.235 65.499 0.195 126.85-37.24 191.617-117.235z" />
<glyph unicode="&#xe649;" glyph-name="Image_Copy" d="M644.783 440.324c-30.467 0-55.385 24.428-55.385 55.385 0 30.793 24.918 55.874 55.385 55.874 31.229 0 55.929-25.081 55.929-55.874 0-30.957-24.7-55.385-55.929-55.385zM768.664 596.305c0 6.909-5.604 13.166-12.84 13.166h-639.1c-6.964 0-12.622-6.257-12.622-13.166v-254.073c0-15.832 132.749 176.709 132.749 176.709s108.158-179.266 194.989-272.462c5.441-1.143 11.588-1.904 18.498-3.156 25.516 34.112 81.010 108.811 111.422 151.628 28.889-33.242 80.248-116.972 124.806-165.447 47.605-1.251 82.098-1.251 82.098-1.251v368.052zM824.43 626.609v-508.473c0-16.866-14.145-30.793-30.576-30.793h-711.568c-16.974 0-30.793 13.928-30.793 30.793v508.473c0 16.866 13.819 30.086 30.793 30.086h711.568c16.43 0 30.576-13.221 30.576-30.086zM947.984 241.527h-77.419v61.532h31.283c8.487 0 15.397 6.964 15.397 15.832v415.222c0 8.106-6.909 15.016-15.397 15.016h-618.426c-8.542 0-15.506-6.909-15.506-15.016v-30.902h-61.859v77.473c0 16.267 13.819 30.195 30.793 30.195h711.133c17.355 0 31.229-13.928 31.229-30.195v-508.364c0-16.974-13.873-30.793-31.229-30.793z" />
<glyph unicode="&#xe64a;" glyph-name="Image_Gallery" d="M222.537 424.609c0-24.527 11.261-46.62 29.060-60.839h537.533v326.719c-14.124 2.911-11.214-4.295-26.197-4.295-67.615 0-119.245-30.73-159.232-79.115-7.348 25.624-30.825 44.281-58.644 44.281-33.688 0-61.078-27.294-61.078-61.030l0.716-8.685c-64.752 0-119.77-44.091-135.517-103.832-13.313 10.355-30.014 16.606-48.242 16.606-43.279 0-78.399-26.388-78.399-69.81zM281.373 618.293c0-14.554 11.738-26.292 26.197-26.292 14.315 0 26.101 11.738 26.101 26.292 0 14.411-11.786 26.054-26.101 26.054-14.458 0-26.197-11.643-26.197-26.054zM109.257 816.892v-566.45h56.64v-113.424h56.64v-113.328h566.593v113.328h56.64v113.424h56.688v566.45h-793.201zM222.537 250.442h566.593v-56.688h-566.593v56.688zM165.897 760.204h679.825v-453.122h-679.825v453.122zM279.225 137.019h453.169v-56.688h-453.169v56.688z" />
<glyph unicode="&#xe64b;" glyph-name="Information" d="M737.389 819.871c0-68.95-55.88-124.957-124.83-124.957-68.887 0-124.893 56.006-124.893 124.957s56.006 124.83 124.893 124.83c68.95 0 124.83-55.88 124.83-124.83zM641.404 571.738c-37.001 90.292-196.938 121.989-349.487-8.524 0 0 215.691 15.912 135.754-163.852 0 0-283.631-671.318 303.773-381.626 0 0-261.847-37.948-123.946 227.814 55.501 106.772 66.361 247.514 33.907 326.188z" />
<glyph unicode="&#xe64c;" glyph-name="Key" d="M279.549 626.939c-69.819 0-125.913-57.039-125.913-127.803 0-70.864 56.094-128.251 125.913-128.251 69.571 0 125.913 57.387 125.913 128.251 0 70.764-56.343 127.803-125.913 127.803zM918.763 456.718h-67.631v-84.937c0-13.079-5.619-16.808-17.206-16.808h-50.574c-9.797 0-17.206 5.57-17.206 16.808v67.681h-50.723v-33.915c0-9.647-9.697-16.709-17.156-16.709h-16.659c-10.194 0-17.355 8.653-17.355 16.709v51.171h-169.277c-23.074-91.252-118.255-169.625-215.425-169.625-115.222 0-208.762 94.733-208.762 212.044 0 117.062 93.54 212.094 208.762 212.094 97.17 0 192.351-78.373 215.425-169.973h389.874c27.301 0 33.915-3.73 33.915-33.468v-51.072z" />
<glyph unicode="&#xe64d;" glyph-name="Key2" d="M303.769 755.139c-38.914 0-70.334-30.987-70.334-69.181s31.42-68.941 70.334-68.941c38.866 0 69.902 30.747 69.902 68.941s-31.035 69.181-69.902 69.181zM935.721 51.412h-93.587c0 0 9.657 59.477 0 69.133-6.534 6.39-48.859-21.187-58.756-11.434-17.151 17.584 12.587-12.731-11.338 11.434-5.525 5.044 5.044 41.028 0 46.457-14.893 13.98-32.189-15.181-47.13 0l-11.722 11.482c-7.495 7.543 19.169 73.073 11.722 80.615-8.071 7.879-74.274-19.121-81.816-11.434-56.21 55.729-145.377 146.77-145.377 146.77-36.753-20.082-78.886-31.66-124.046-31.66-142.158 0-257.172 113.765-257.172 254.241 0 139.9 115.014 253.665 257.172 253.665 142.302 0 257.604-113.765 257.604-253.665 0-41.413-10.281-80.327-27.817-114.63l332.262-346.963v-104.012z" />
<glyph unicode="&#xe64e;" glyph-name="Like" d="M193.701 70.832h-43.291c-36.956 0-67.074 22.626-67.074 50.582v279.106c0 28.157 30.118 50.833 67.074 50.833h43.291c37.157 0 67.376-22.676 67.376-50.833v-279.106c0-27.956-30.219-50.582-67.376-50.582zM905.37 467.897c-7.039-27.403-42.789-49.677-22.425-70.041 20.665-20.766 13.928-61.795-6.738-82.108-20.313-20.766 5.229-46.359 8.799-75.27 3.469-29.112-17.447-37.71-35.8-54.705-18.855-17.246 0-18.855-12.168-68.582-11.866-49.677-90.756-75.32-208.764-75.32-117.706 0-341.555 49.677-341.555 49.677v347.337c0 0 70.091-18.755 102.321 70.141 36.051 45.252 40.375 95.231 50.833 121.276 10.81 26.297 52.945 67.476 75.923 80.7 47.666 27.403 42.437 182.97 42.437 182.97s1.961 3.469 41.28 5.43c38.967 1.458 108.756-86.331 69.789-176.333-51.185-102.924-59.884-154.109-47.716-160.948 12.268-6.788 127.964 0 186.691-3.369 57.822-3.419 103.728-63.353 97.091-90.857z" />
<glyph unicode="&#xe64f;" glyph-name="Lock" d="M585.59 223.025l0.571-65.572c0-2.615-1.427-4.993-2.14-7.513-9.463-21.445-33.381-28.15-40.799-29.672-0.713-0.048-1.474-0.428-2.282-0.428-24.536 4.327-35.235 16.976-39.277 23.49-1.902 3.947-3.186 8.084-3.186 12.553l-0.571 71.992c-38.231 14.741-63.956 56.157-63.956 95.197 0 52.544 48.644 95.149 108.653 95.149 59.866 0 108.558-42.605 108.558-95.149 0-41.607-23.015-87.16-65.572-100.047zM581.501 142.664c0.38 0.808 0.761 1.617 1.094 2.33-0.38-0.761-0.618-1.569-1.094-2.33zM501.996 142.189c0-0.143 0.095-0.238 0.143-0.333-0.048 0.095-0.143 0.19-0.143 0.333zM407.561 704.571l1.664 0.761c45.126 99.001 129.005 93.58 129.005 93.58 107.56-2.235 132.239-90.346 132.239-90.346v-161.34h-262.337v151.687c0 1.95-0.38 3.804-0.571 5.659zM793.054 547.226h-15.026v161.34c0 6.61-1.284 12.886-3.519 18.735-37.993 175.367-234.14 173.798-234.14 173.798-186.209-1.854-227.197-143.128-235.519-188.158-1.236-4.565-2.045-9.225-2.045-14.027v-151.687h-8.654c-55.825 0-101.045-45.316-101.045-101.14v-328.861c0-55.825 45.221-101.188 101.045-101.188h498.902c55.92 0 101.14 45.363 101.14 101.188v328.861c0 55.825-45.221 101.14-101.14 101.14z" />
<glyph unicode="&#xe650;" glyph-name="Map" d="M733.842 490.141c-16.278 0-38.861 4.799-54.198 6.869-61.867-78.098-171.486-57.679-171.486-57.679 68.83 32.415 80.874 90.048 68.736 97.199-54.104 31.71-79.556 67.371-79.556 121.475 0 95.599 103.738 169.369 236.505 169.369 132.672 0 213.546-73.77 213.546-169.369 0-95.458-80.874-167.863-213.546-167.863zM80.502 544.527c12.703 0 23.147 9.833 23.147 22.065 0 12.326-10.444 22.159-23.147 22.159-12.656 0-23.053-9.833-23.053-22.159 0-12.232 10.397-22.065 23.053-22.065zM109.624 500.256c12.797 0 23.288 9.927 23.288 22.065 0 12.279-10.491 22.206-23.288 22.206-12.656 0-22.959-9.927-22.959-22.206 0-12.138 10.303-22.065 22.959-22.065zM132.912 433.825c0-12.232 10.162-22.065 22.959-22.065-12.797 0-22.959-9.927-22.959-22.253 0-12.091 10.162-22.018 22.959-22.018 12.75 0 23.053 9.927 23.053 22.018 0 12.326-10.303 22.253-23.053 22.253 12.75 0 23.053 9.833 23.053 22.065 0 12.279-10.303 22.112-23.053 22.112 12.75 0 23.053 9.927 23.053 22.159s-10.303 22.159-23.053 22.159c-12.797 0-22.959-9.927-22.959-22.159s10.162-22.159 22.959-22.159c-12.797 0-22.959-9.833-22.959-22.112zM201.977 323.171c12.703 0 23.1 9.927 23.1 22.159s-10.397 22.159-23.1 22.159c-12.656 0-23.053-9.927-23.053-22.159s10.397-22.159 23.053-22.159zM52.226 766.823l223.473-133.801v-322.506c-3.764 7.433-11.479 12.656-20.701 12.656-12.75 0-29.922-9.833-29.922-22.159 0-12.185 17.266-22.018 30.016-22.018 9.127 0 16.843 5.128 20.607 12.373v-182.119l-223.473 126.462v531.112zM271.089 301.012c0-3.481-0.894-6.681-2.399-9.645l0.094 19.148c1.411-2.964 2.305-6.069 2.305-9.503zM386.495 323.171c12.703 0 22.959 9.927 22.959 22.159s-10.256 22.159-22.959 22.159c-12.75 0-23.147-9.927-23.147-22.159s10.397-22.159 23.147-22.159zM331.544 301.012c0-12.185 10.303-22.018 23.053-22.018 12.703 0 8.751 9.833 8.751 22.018 0 12.326 3.952 22.159-8.751 22.159-12.75 0-23.053-9.833-23.053-22.159v330.175l111.736 82.426c0 0-43.707-113.477-6.963-188.564l27.946-24.417c-3.34 1.647 12.656-20.983 8.704-20.983-12.75 0-36.65-45.306-36.65-45.306l6.963-52.363c15.808-5.693 94.376-19.195 111.736-20.936v-119.076l-223.473-140.059v199.102zM833.44 99.040l-222.532 135.636 0.8 144.999c71.041 6.351 149.233 34.768 222.579 71.982l-0.847-352.616z" />
<glyph unicode="&#xe651;" glyph-name="Mouse" d="M587.37 688.65c0 63.743-10.244 92.091-73.878 92.091-64.285 0-74.041-28.348-74.041-92.091v-74.204h-222.069c0 159.844 136.537 295.893 296.11 295.893 159.194 0 295.568-136.049 295.568-295.893h-221.689v74.204zM542.328 708.001v-173.070c0-16.423-13.117-31.329-28.836-31.329-16.315 0-29.107 14.906-29.107 31.329v173.070c0 15.99 12.792 35.936 29.107 35.936 15.719 0 28.836-19.947 28.836-35.936zM513.492-14.198c-159.573 0-296.11 136.591-296.11 295.785v296.218h222.069c0-63.634 9.757-110.628 74.041-110.628 63.634 0 73.878 46.994 73.878 110.628h221.689v-296.218c0-159.194-136.374-295.785-295.568-295.785z" />
<glyph unicode="&#xe652;" glyph-name="Mouse_Hand" d="M549.31 635.1c53.067 0 56.396-52.004 56.396-86.304 0 0 11.603 39.893 53.16 33.236 38.136 0 52.975-23.76 52.975-53.16l53.16-23.159c29.4 0 53.067-66.889 53.067-96.335v-92.914c0 0-18.259-26.441-53.067-106.088-34.854-79.693-53.16-159.341-53.16-159.341h-318.542c0 0 5.039 82.698 0 106.088-65.502 0-103.546 190.497-103.546 190.497-19.322 37.443-49.878 70.633-66.935 100.403-29.030 50.941-53.067 98.276-14.885 120.187 38.275 21.587 92.729-2.080 121.805-53.021 2.958-4.946 5.131-10.216 7.35-15.347l42.944-85.657 13.267 433.275c0 29.353 23.668 53.252 53.067 53.252 29.261 0 53.206-23.899 53.206-53.252v-283.734c0 0-3.421 71.373 49.739 71.373z" />
<glyph unicode="&#xe653;" glyph-name="Move" d="M980.693 413.591l-168.647 168.549v-112.333h-225.353v225.452h112.333l-168.794 168.647-168.549-168.647h112.382v-225.452h-225.55v112.431l-168.5-168.647 168.5-168.647v112.235h225.55v-225.255h-112.382l168.549-168.745 168.696 168.745h-112.235v225.255h225.353v-112.284l168.647 168.696z" />
<glyph unicode="&#xe654;" glyph-name="New_User" d="M857.362 485.819v-114.901h-57.376v114.901h-114.901v57.376h114.901v114.801h57.376v-114.801h114.801v-57.376h-114.801zM340.582 256.217l57.526 229.602h114.751l57.426-229.602h-229.702zM53.604 83.94c0 158.533-2.449 229.702 401.979 229.702 404.228 0 401.779-71.17 401.779-229.702h-803.758zM455.583 428.344c-95.309 0-172.277 89.962-172.277 201.065 0 110.903-1.849 199.115 172.277 200.915 172.127 0 172.127-90.012 172.127-200.915 0-111.103-77.067-201.065-172.127-201.065z" />
<glyph unicode="&#xe655;" glyph-name="Paperclip" d="M410.874 139.035c-0.245-0.49-1.078-1.029-1.666-1.617-65.493-62.946-169.734-64.024-232.877-2.89-66.865 62.848-68.286 154.059 1.127 224.941 0.588 0 1.176 1.127 1.47 1.127 0.833 0.588 1.421 1.176 2.008 1.666l434.745 422.597c39.678 37.964 102.82 38.552 141.274 1.714 22.68-33.506 37.425-99.146-1.372-137.6l-3.674-3.429-394.038-383.017v0.588l-36.494-35.661-0.882 1.714-1.176-1.078-1.617-2.351h-0.245c-14.794-13.52-37.131-13.52-50.798 0-13.814 13.079-13.618 32.428 0 47.026 0.343 0 0.637 1.078 1.127 1.078l39.188 38.552 289.161 280.882-39.139 38.6-289.21-280.931-35.416-38.552h-0.245c-0.245-0.588-0.784-1.029-0.784-1.029-36.249-36.298-41.050-88.419-5.437-122.953 35.661-34.633 94.052-32.33 131.134 2.841l0.49 1.078h0.343l437.391 417.992c61.134 60.742 32.232 173.947 2.449 215.291-60.595 59.027-159.986 57.754-222.541-3.38-0.882-0.539-1.714-1.714-2.253-2.302h-0.637l-430.777-419.217c-0.245 0-0.882-0.49-1.078-1.078-0.931 0-1.176-0.539-2.057-1.617l-0.49-0.784h0.294c-85.822-85.431-87.047-220.238-2.645-302.289 85.479-82.687 226.068-80.483 313.898 4.36 0.343 0.784 0.833 1.274 1.078 1.274l457.719 444.102-39.678 38.552-457.67-444.2z" />
<glyph unicode="&#xe656;" glyph-name="Pie-Chart" d="M849.214 499.482c0 0 6.255-44.589 6.255-67.285 0-198.014-160.35-358.185-357.828-358.185-197.924 0-358.14 160.171-358.14 358.185 0 197.478 160.216 357.694 358.14 357.694 15.503 0 45.259-2.725 45.259-2.725l-37.932-362.832 344.246 75.149zM566.356 485.364c0 0 23.322 300.238 30.337 350.411 264.138-65.588 304.661-274.458 304.661-274.458l-334.997-75.953z" />
<glyph unicode="&#xe657;" glyph-name="Presentation" d="M761.937 576.675l-110.388-232.954-129.524 333.642-117.347-220.302-101.637 104.168-65.895-41.382-17.66-10.912c0 0-15.92-33.264-39.168-16.658-23.406 16.658 1.951 37.956 1.951 37.956l131.106 81.658 77.335-79.707 138.749 261.051 127.046-326.683 106.065 222.779 93.993-200.269c12.072-36.638-39.537-37.481-49.553-8.224l-45.072 95.838zM917.292 815.691c0 15.34-20.559 35.9-35.953 35.9h-719.157c-15.446 0-36.058-20.559-36.058-35.9v-503.178c0-15.762 20.612-35.953 36.058-35.953h719.157c15.393 0 35.953 20.19 35.953 35.953v503.178zM917.292 222.526h-215.715l98.79-215.61h-27.94l-214.925 215.61h-89.618l-201.166-215.61h-28.045l103.166 215.61h-215.715c-31.155 0-53.982 22.826-53.982 54.034v575.030c0 31.314 22.826 54.192 53.982 54.192h786.423c31.314 0 58.621-22.879 58.621-54.192v-575.030c0-31.208-23.090-54.034-53.876-54.034z" />
<glyph unicode="&#xe658;" glyph-name="Pushpin" d="M883.029 626.184l-9.471-9.188c-18.517-18.517-42.547-24.501-53.667-13.617 0 0-2.827 3.204-13.334 13.617-10.413 10.366-24.030 11.874-35.433-5.466-55.034-77.509-131.317-211.936-187.906-291.565-12.062-17.999-13.994-28.318-2.026-40.851 11.779-11.403 25.020-24.548 25.020-24.548 19.13-19.083 15.36-54.468-8.67-78.404l0.283 0.518c-23.936-23.889-58.803-27.752-77.933-8.717l-149.175 149.835-250.149-250.149-21.533 21.344 249.489 250.054-149.364 149.269c-18.941 19.695-14.889 54.468 9.047 78.498l-0.565-0.565c23.747 23.936 58.897 27.8 78.31 8.67 0 0 11.968-11.874 22.805-22.758 12.062-12.062 22.946-14.182 43.254 0.471 81.278 57.814 216.648 134.192 291.283 186.917 18.329 11.968 14.983 25.585 5.23 35.338-10.649 11.073-13.806 13.617-13.806 13.617-11.026 10.884-5.042 35.009 13.806 53.573l9.235 9.753c18.753 18.517 42.783 25.020 53.903 13.617l185.267-184.702c10.931-11.403 4.853-35.433-13.9-54.562z" />
<glyph unicode="&#xe659;" glyph-name="Pushpin2" d="M570.31 926.891c0 0-62.572 27.662-70.963-31.894l39.471-230.661-248.561-104.030c0 0-26.708-32.069 13.208-53.615s345.12-207.71 345.12-207.71c0 0 68.49-23.698 50.978 42.672-17.458 66.36-37.136 225.066-37.136 225.066l240.305 97.087c0 0 31.008 36.409-5.339 58.886l-327.083 204.2zM351.213 395.219c0 0-173.884-406.309-176.113-434.699 0 0 4.562-11.17 16.655-1.657 12.147 9.503 291.576 338.692 291.576 338.692s15.297 8.88 4.495 14.457c-10.812 5.523-124.523 84.145-124.523 84.145s-2.998 10.805-12.090-0.938z" />
<glyph unicode="&#xe65a;" glyph-name="Lightbulb" d="M597.702 175.544h-173.243c-14.186 0-25.663-15.609-25.663-34.783 0-19.251 11.477-34.86 25.663-34.86h173.243c14.201 0 25.663 15.609 25.663 34.86 0 19.19-11.462 34.783-25.663 34.783zM597.702 79.707h-173.243c-14.186 0-25.663-15.838-25.663-35.395 0-19.465 11.477-35.288 25.663-35.288h173.243c14.201 0 25.663 15.823 25.663 35.288 0 19.557-11.462 35.395-25.663 35.395zM527.696 376.588c14.339 60.813 29.397 124.749 38.38 162.853 4.759 20.23-5.448 41.042-24.24 49.918-20.322 9.61-44.057 9.717-64.333 0-18.685-8.952-28.509-29.856-23.75-50.025 9.075-38.533 24.347-103.371 38.808-164.704 4.377-18.578 30.759-16.619 35.135 1.959zM510.802 919.256c-192.326 0-348.354-147.871-348.354-330.281 0-122.79 70.791-229.665 175.661-286.607 17.644-9.58 32.794-23.52 42.251-41.211l12.441-23.306c10.605-19.863 31.432-32.35 53.958-32.35 18.685 0 32.411 17.476 27.974 35.64l-84.074 344.314c-5.387 22.082 4.208 45.235 23.628 57.018l60.523 36.788c20.077 12.196 45.419 12.411 65.71 0.551l64.654-37.875c19.557-11.447 29.32-34.477 23.949-56.483l-83.829-343.396c-4.545-18.624 9.534-36.558 28.708-36.558 23.092 0 44.47 12.808 55.35 33.192l11.997 22.465c9.457 17.69 24.622 31.631 42.251 41.195 104.901 56.927 175.738 163.832 175.738 286.622 0 182.41-156.058 330.281-348.537 330.281z" />
<glyph unicode="&#xe65b;" glyph-name="Settings2" d="M661.259 497.914h-55.666c-30.742 0-55.714 24.924-55.714 55.666v111.38c0 30.888 24.972 55.714 55.714 55.714h55.666c30.742 0 55.666-24.827 55.666-55.714v-111.38c0-30.742-24.924-55.666-55.666-55.666zM605.593 887.915h55.666v-111.574h-55.666v111.574zM605.593 442.248h55.666v-445.57h-55.666v445.57zM382.638 163.772h-55.618c-30.742 0-55.714 24.827-55.714 55.714v111.283c0 30.742 24.972 55.666 55.714 55.666h55.618c30.888 0 55.763-24.924 55.763-55.666v-111.283c0-30.888-24.875-55.714-55.763-55.714zM327.021 108.009h55.569v-111.38h-55.569v111.38zM327.021 887.915h55.569v-445.667h-55.569v445.667zM884.020 887.915h55.618v-891.286h-55.618v891.286zM48.497 887.915h55.714v-891.286h-55.714v891.286z" />
<glyph unicode="&#xe65c;" glyph-name="Shrink" d="M391.026 541.359l-177.238 10.532c-15.346 0.429-28.547 14.297-29.405 29.595 0 0-3.336 14.44 5.099 23.257 10.532 10.437 25.783 25.878 42.939 42.987l-129.2 131.058c-11.438 11.676-14.25 27.594-6.053 36.506l46.371 46.8c8.245 7.768 24.258 5.528 36.077-6.005l129.295-131.154c17.776 18.11 33.885 34.695 44.893 45.608 9.293 9.484 23.733 6.148 23.733 6.148 15.632-0.667 28.833-14.345 29.595-29.262l10.342-179.621c0.715-15.489-11.104-27.546-26.45-26.45zM900.438 105.483l-46.228-46.943c-8.292-8.292-24.401-5.481-36.124 6.053l-129.676 131.249c-17.681-18.825-33.789-34.79-44.56-45.799-9.674-9.389-24.019-6.624-24.019-6.624-15.727 1.144-28.785 14.345-29.691 29.691l-10.246 179.192c-0.763 15.441 11.152 27.546 26.545 27.022l177.286-10.437c15.298-1.144 28.595-14.345 29.691-30.358 0 0 3.193-13.773-5.385-22.59-10.342-10.532-25.687-25.878-42.892-43.511l129.295-130.677c11.914-11.533 14.297-28.023 6.005-36.267z" />
<glyph unicode="&#xe65d;" glyph-name="Link" d="M876.155 932.169c-39.257 39.318-91.646 60.971-147.535 60.971-55.706 0-108.125-21.683-147.581-61.047-53.576-53.591-91.403-91.464-118.153-118.183-11.747-11.762-2.511-31.056 14.014-32.806 5.813-0.609 11.61-1.415 17.362-2.389 27.906-4.732 57.684 0.578 77.678 20.603l60.758 60.819c23.022 22.9 53.545 35.514 85.956 35.514 32.365 0 62.782-12.584 85.651-35.393 23.007-22.931 35.606-53.408 35.484-85.697 0.122-32.319-12.538-62.842-35.636-85.956 0 0-148.144-148.144-159.464-159.434-22.52-22.413-54.976-35.788-86.823-35.788-1.826 0-3.652 0.046-5.493 0.137-45.116 2.404-74.209 30.569-81.421 38.345-9.084 8.019-20.953 12.462-33.338 12.508-13.558-0.046-26.248-5.28-35.727-14.744-18.67-18.64-23.113-48.57-5.037-67.772 1.476-1.582 2.967-3.104 4.489-4.626 39.334-39.318 91.753-61.001 147.626-61.047 55.843 0.046 108.186 21.668 147.398 60.895l179.808 179.824c39.364 39.242 61.032 91.646 61.032 147.566 0 55.843-21.683 108.293-61.047 147.702zM519.84 327.48c-5.828 0.609-11.656 1.415-17.438 2.389-27.891 4.717-57.684-0.609-77.678-20.618l-60.712-60.743c-22.444-22.626-53.652-35.59-85.606-35.59-32.517 0-62.995 12.629-85.788 35.499-23.007 22.855-35.682 53.271-35.682 85.682 0.107 32.502 12.782 62.979 35.651 85.773l159.556 159.708c5.965 5.873 38.192 35.088 86.26 35.225 45.131 0 68.472-21.15 82.425-33.764 1.674-1.537 3.256-2.952 4.717-4.2 10.484-8.901 20.603-12.69 33.856-12.69 13.314 0 25.898 5.234 35.438 14.744 18.716 18.685 23.144 48.707 4.96 67.894-1.446 1.552-2.937 3.074-4.443 4.565-39.090 39.303-91.433 60.971-147.368 61.016-55.828-0.046-108.278-21.729-147.687-61.047l-179.732-179.869c-39.866-39.881-61.579-91.829-61.093-146.242 0.609-56.284 22.885-110.484 61.077-148.692 39.379-39.242 91.799-60.925 147.626-61.032 56.041 0.107 108.445 21.759 147.596 60.971 53.621 53.652 91.479 91.509 118.198 118.229 11.777 11.762 2.419 31.056-14.136 32.791z" />
<glyph unicode="&#xe65e;" glyph-name="Sunglasses" d="M293.213 601.116c0 0 25.222-25.883 30.866-65.546 14.899 0 43.528-4.119 43.528-4.119s16.17 49.732 45.053 58.173c-40.985-0.661-119.448 11.492-119.448 11.492zM925.283 462.091c3.966-48.816-34.070-29.086-41.443-22.628-7.577 6.051 26.442 103.023 21.561 112.837-5.339 9.967-142.33-103.684-142.33-103.684s42.358-181.638-158.247-181.638c-200.757 0-239.607 230.912-239.607 230.912l-37.934 4.17c0 0-13.475-57.207-35.544-97.633-21.662-40.274-48.562-68.851-86.7-66.614-38.545 2.187-97.124 22.069-125.601 135.72-28.476 112.99 38.595 167.552 57.359 178.129 18.459 11.187 102.006 0 102.006 0s123.719 61.478 194.35 66.462c55.63-28.68 64.427-83.954 64.427-83.954s2.898 0-16.221-2.237c-37.578-4.932-36.968 45.359-60.919 51.817-24.001 6.153-138.974-47.952-138.974-47.952s57.512-14.543 245.76-21.459c201.673 0 225.217-122.143 225.217-122.143s151.127 101.955 177.875 114.617c26.493-2.39-12.916-72.462-5.034-144.72z" />
<glyph unicode="&#xe65f;" glyph-name="Tools" d="M418.691 465.88l-232.195-231.298c-26.078-25.989-27.378-66.674-3.047-90.781l52.604-52.47c24.241-24.151 65.016-22.762 91.094 3.137l232.195 231.298c25.989 25.899 27.378 66.495 3.047 90.646l-2.733 2.823 238.512 237.616 35.891-10.709 102.117 148.359-46.914 46.555-148.941-101.624 10.933-35.846-238.557-237.527-2.913 2.868c-24.241 24.241-65.016 22.762-91.094-3.047zM508.445 555.232l22.494 22.404-10.171 10.395c19.088 72.141 0.896 153.153-55.831 212.703-68.153 71.379-171.345 89.929-255.271 52.067l126.179-127.792c14.652-14.787 14.831-38.132 0.717-52.336l-51.439-51.171c-14.294-14.114-37.728-13.935-52.604 0.583l-128.285 125.686c-38.087-83.567-19.536-186.401 52.291-254.24 35.712-33.875 79.131-53.994 123.759-60.58l132.407 131.825c23.838-23.703 62.328-23.703 86.031 0l9.723-9.544zM576.374 237.724l142.175-138.277c29.618-28.767 78.414-27.109 109.152 3.585l29.394 29.080c30.738 30.604 32.396 79.265 3.405 108.749l-190.658 195.004-20.836-20.567 9.634-9.903c-23.659-23.614-23.659-61.969 0-85.673l-82.267-81.998z" />
<glyph unicode="&#xe660;" glyph-name="Unlock" d="M567.554 201.030l0.545-69.354c0-21.203-25.512-40.869-49.142-40.869-23.68 0-48.647 19.667-48.647 40.869v73.416c-41.662 15.951-67.819 63.756-67.819 106.161 0 56.87 52.907 103.14 118.249 103.14 65.242 0 118.199-46.269 118.199-103.14 0-45.179-25.067-96.303-71.385-110.224zM793.5 554.192h-28.881v159.069c0 6.935-1.437 13.425-3.765 19.518-39.532 182.699-243.83 181.064-243.83 181.064-194.043-1.932-236.646-149.012-245.415-196.025-1.288-4.657-2.18-9.511-2.18-14.614l-0.743-57.465c0-30.417 25.711-41.513 56.028-41.513s53.799 13.425 53.799 43.693l0.694 55.285c0 2.031-0.396 3.963-0.594 5.994l1.734 0.743c47.062 103.090 134.448 97.443 134.448 97.443 112.007-2.229 137.817-94.124 137.817-94.124v-159.069h-402.353c-60.834 0-110.075-49.043-110.075-109.629v-356.53c0-60.586 49.241-109.629 110.075-109.629h543.242c60.734 0 109.976 49.043 109.976 109.629v356.53c0 60.586-49.241 109.629-109.976 109.629z" />
<glyph unicode="&#xe661;" glyph-name="User_Female" d="M612.952 360.359c12.622-2.81 39.593-45.756 39.593-45.756s8.481-4.832 124.055-47.63c104.628-32.591 136.923-107.142 145.946-160.048 11.883-40.924-9.023-56.85-47.926-56.85h-735.255c-38.015 0-55.42 15.926-51.229 53.103 8.382 52.511 38.952 130.464 145.503 163.795 114.095 42.798 122.181 47.63 122.181 47.63s27.069 42.946 39.198 45.756c12.672 2.564 2.317 19.723 0 24.407-10.305 24.061-30.915 43.587-38.36 81.355-7.396 37.67-8.924 68.733-12.179 119.568 0.74 9.96-2.169 23.667-4.931 44.819-9.565-3.747-18.441-9.763-25.787-19.279-37.177 116.363 82.785 209.157 94.569 210.932 25.097 14.447 56.111 23.716 92.794 24.407v0.444h5.226v-0.444c6.311 0 12.524-0.444 18.391-1.134v0.444c-5.128 17.356-84.264 20.709-102.31-12.277 2.169 49.898 62.767 56.899 80.172 56.899 204.917 0 226.414-182.482 226.414-323.646 0-141.065 83.032-190.914 83.032-190.914-87.962 7.79-171.093 28.45-170.304 42.896 0 14.644-0.296 23.914-0.296 38.311 25.836 14.102 45.066 47.285 45.066 47.285s-6.952-2.268-17.306-3.254c-7.544-24.801-22.632-32.493-30.373-32.493-10.354 0-7.84-1.528-7.84-21.793 0-62.126-15.778-57.294-18.046-62.126-1.627-4.684-12.080-21.843 0-24.407z" />
<glyph unicode="&#xe662;" glyph-name="Lock2" d="M307.115 544.237h47.434c16.683 0 30.222 13.54 30.222 30.222v77.46c0 74.060 59.523 134.413 132.57 134.413 73.108 0 132.66-60.354 132.66-134.413v-77.46c0-16.683 13.524-30.222 30.222-30.222h47.509c16.683 0 30.222 13.54 30.222 30.222v77.46c0 134.413-107.954 243.682-240.614 243.682-132.57 0-240.448-109.268-240.448-243.682v-77.46c0-16.683 13.54-30.222 30.222-30.222zM721.639 365.381h-415.208c-12.95 0-23.498 10.714-23.498 23.936s10.548 23.906 23.498 23.906h415.208c12.95 0 23.588-10.684 23.588-23.906s-10.638-23.936-23.588-23.936zM721.594 238.312h-415.133c-12.965 0-23.528 10.714-23.528 23.966 0 13.147 10.563 23.876 23.528 23.876h415.133c12.95 0 23.634-10.729 23.634-23.876 0-13.252-10.684-23.966-23.634-23.966zM761.155 524.879h-487.5c-52.859 0-95.638-43.384-95.638-96.908v-303.265c0-53.448 42.78-96.862 95.638-96.862h487.5c52.813 0 95.578 43.414 95.578 96.862v303.265c0 53.524-42.764 96.908-95.578 96.908z" />
<glyph unicode="&#xe663;" glyph-name="User_Male" d="M878.43 59.854h-741.936c-41.114 0-55.975 8.173-49.684 51.269 8.768 51.566 40.322 127.255 148.060 159.552 116.804 41.708 125.175 46.068 125.175 46.068s27.343 41.51 40.123 44.086c2.13 11.888 11.344 40.569-7.876 63.851-22.043 30.117-42.253 105.856-34.625 155.144 1.536 18.13-19.22 48.247-19.22 115.417 0 19.319-34.625 62.414-34.625 62.414s59.492 15.207 60.532 19.22c8.223 25.312-14.316 44.482-14.316 44.482s43.343 4.161 68.111-2.526c7.827 4.904-37.845 31.207-28.483 34.922 20.062 7.777 86.785 1.189 114.178-13.275-1.040 17.734-10.402 64.098-6.241 64.098 7.48-21.201 55.975-56.074 94.265-69.002 38.241-12.582 51.715-42.352 61.225-52.359 26.848-28.136 15.703-29.671 24.817-87.974 0-67.169-10.997-97.287-10.006-115.417 9.412-1.387 9.412-3.269 9.412-51.516 0-48.297-24.668-62.365-34.823-62.365-5.697-24.916-47.653-49.386-26.204-105.113 12.681-2.576 39.975-44.086 39.975-44.086s8.421-4.359 125.373-46.068c107.59-32.693 139.144-107.293 147.565-158.413 5.35-38.291-10.402-52.408-50.773-52.408z" />
<glyph unicode="&#xe664;" glyph-name="User_Profile" d="M560.309 734.958h-319.634v-319.529h319.634v319.529zM585.126 390.273h-369.812v369.896h369.812v-369.896zM316.428 620.327c0 0-27.852 122.263 93.722 98.258 0 0 58.748 9.303 62.94-39.682 4.192-49.043-4.594-68.453-4.594-68.453s17.63 4.25 17.63-12.347c0-16.597-13.495-42.726-29.862-46.516 0 0-5.168-15.965-18.434-30.724-6.374-7.006-6.374-26.474-3.848-28.943 0.861-0.804 13.323-5.283 31.011-8.097 15.333-2.469 34.514-3.159 52.833-6.374 42.841-7.408 49.215-22.684 54.384-30.609 12.691-19.87 5.283-46.344 5.283-46.344h-361.62l1.149 45.54c0 0 7.695 36.696 128.752 44.506 0 0 4.25 1.378 2.010 28.829 0 0-14.701 27.278-14.701 35.662 0 2.469-6.776 3.962-11.945 9.303-13.151 13.61-25.613 42.324-9.59 51.053l3.044 0.574 2.642-0.574-0.804 4.939zM887.709 809.329c0 12.806-10.337 23.201-23.201 23.201h-693.838c-12.921 0-23.258-10.394-23.258-23.201v-698.202c0-12.806 10.337-23.143 23.258-23.143h693.838c12.864 0 23.201 10.337 23.201 23.143v698.202zM948.812 73.224c0-25.613-20.731-46.344-46.286-46.344h-771.939c-25.67 0-46.401 20.731-46.401 46.344v768.608c0 25.498 20.731 46.344 46.401 46.344h771.939c25.555 0 46.286-20.846 46.286-46.344v-768.608zM783.789 273.069h-556.063v49.122h556.063v-49.122zM783.789 150.349h-556.063v49.122h556.063v-49.122z" />
<glyph unicode="&#xe665;" glyph-name="Wrench" d="M754.633 463.808c-30.845 0-60.298-6.436-87.433-17.22l-170.111 170.343c10.668 27.018 16.93 56.472 16.93 87.607 0 132.715-107.726 240.672-240.614 240.672-19.829 0-39.078-3.189-57.573-7.711 60.472-17.22 105.638-70.561 105.638-136.773 0-79.837-64.473-144.31-144.137-144.31-66.27 0-119.669 45.34-136.715 105.754-4.58-18.553-7.711-37.687-7.711-57.631 0-132.947 107.726-240.73 240.498-240.73 31.077 0 60.414 6.088 87.607 16.872l170.111-170.227c-10.784-27.018-17.104-56.588-17.104-87.375 0-132.947 107.899-240.788 240.614-240.788 19.945 0 39.31 2.957 57.747 7.595-60.588 17.452-105.812 70.793-105.812 136.889 0 79.722 64.589 144.426 144.426 144.426 66.096 0 119.379-45.514 136.599-105.986 4.406 18.553 7.537 37.687 7.537 57.863 0 132.831-107.552 240.73-240.498 240.73z" />
<glyph unicode="&#xe666;" glyph-name="Shopping-Cart_Add" d="M902.77 622.82h-54.168c-16.909 0-30.631-13.706-30.631-30.631v-54.248c0-18.318-14.859-33.049-33.177-33.049-18.174 0-33.113 14.731-33.113 33.049v54.248c0 16.925-13.722 30.631-30.631 30.631h-54.216c-18.126 0-33.065 14.683-33.065 33.033 0 18.302 14.939 33.225 33.065 33.225h54.216c16.909 0 30.631 13.722 30.631 30.647v54.040c0 18.302 14.939 33.225 33.113 33.225 18.318 0 33.177-14.923 33.177-33.225v-54.040c0-16.925 13.722-30.647 30.631-30.647h54.168c18.254 0 33.161-14.923 33.161-33.225 0-18.35-14.907-33.033-33.161-33.033zM784.89 857.939c-111.635 0-202.119-90.483-202.119-202.055 0-111.523 90.483-202.119 202.119-202.119 111.507 0 202.039 90.596 202.039 202.119 0 111.571-90.532 202.055-202.039 202.055zM646.352 397.55l-12.345-75.032c-2.402-14.667-14.891-25.315-29.654-25.315-14.891 0-27.028 12.041-27.028 26.836v74.456c0 17.149 13.962 31.111 31.127 31.111h10.696c8.118 0 15.788-3.539 21.024-9.719 5.252-6.197 7.51-14.331 6.181-22.337zM508.921 531.073c0-17.149-13.962-31.111-31.111-31.111h-23.89c-17.357 0-32.008 12.409-34.858 29.51l-10.792 64.88c-1.297 7.862 0.913 15.852 6.101 21.952 5.444 6.437 13.466 10.12 22.016 10.12h41.887c16.909 0 30.647-13.962 30.647-31.127v-64.224zM508.921 324.023c0-14.795-12.121-26.82-27.044-26.82-14.747 0-27.204 10.632-29.622 25.299l-12.425 75.048c-1.329 8.006 0.929 16.14 6.165 22.337 5.252 6.181 12.906 9.719 21.024 9.719h10.792c17.149 0 31.111-13.962 31.111-31.111v-74.472zM375.862 307.434c-5.524-6.501-13.658-10.232-22.337-10.232h-4.435c-17.069 0-32.040 11.32-36.411 27.541l-2.578 9.607c-4.643 17.053-10.44 38.493-16.781 63.824-1.873 7.414-0.208 15.195 4.531 21.28 4.964 6.357 12.81 10.152 20.992 10.152h16.556c17.341 0 31.992-12.425 34.826-29.542l11.721-70.789c1.297-7.782-0.929-15.756-6.085-21.84zM261.905 527.647c-4.74 18.702-9.223 35.242-13.194 49.909l-4.323 16.028c-2.082 7.782-0.432 15.948 4.499 22.385 5.108 6.645 12.89 10.456 21.328 10.456h34.202c17.021 0 31.415-12.425 34.25-29.542l10.712-64.864c1.329-8.006-0.929-16.14-6.165-22.337-5.252-6.181-12.922-9.719-21.040-9.719h-23.986c-17.229 0-32.152 11.368-36.283 27.685zM796.48 397.245c-6.309-25.155-12.073-46.467-16.668-63.391l-2.098-7.782c-4.579-16.989-19.198-28.87-35.547-28.87h-11.529c-7.75 0-15.083 3.395-20.127 9.351-5.3 6.245-7.558 14.523-6.197 22.721l11.721 70.789c0.881 5.38 3.042 10.216 5.988 14.427-104.286 26.003-181.655 120.009-181.655 232.333 0 17.117 1.873 33.785 5.284 49.893h-297.47c-17.309 0-32.392 11.705-36.683 28.469l-15.82 61.694c-5.94 23.153-26.788 39.341-50.886 39.341l-87.89-0.304c-16.716-0.048-30.311-13.69-30.311-30.391s13.594-30.279 30.295-30.279h48.004c17.357 0 32.344-11.769 36.475-28.613l115.158-470.223c5.7-23.281 26.42-39.533 50.374-39.533h476.227c23.986 0 44.801 16.236 50.63 39.501l39.886 159.687c-23.842-10.12-49.749-16.236-76.825-18.11 0.592-3.507 0.56-7.125-0.336-10.712zM335.55 180.45c-48.052 0-87.121-40.062-87.121-89.315 0-49.237 39.069-89.299 87.121-89.299 48.084 0 87.217 40.062 87.217 89.299 0 49.253-39.133 89.315-87.217 89.315zM754.402 180.45c-48.036 0-87.121-40.062-87.121-89.315 0-49.237 39.085-89.299 87.121-89.299s87.105 40.062 87.105 89.299c0 49.253-39.069 89.315-87.105 89.315z" />
<glyph unicode="&#xe667;" glyph-name="Shopping-Cart_Remove" d="M912.091 614.23h-238.94c-18.356 0-33.486 14.87-33.486 33.453 0 18.535 15.129 33.648 33.486 33.648h238.94c18.486 0 33.583-15.113 33.583-33.648 0-18.583-15.097-33.453-33.583-33.453zM792.71 852.343c-113.073 0-204.692-91.636-204.692-204.627 0-112.943 91.619-204.692 204.692-204.692 112.943 0 204.611 91.749 204.611 204.692 0 112.992-91.668 204.627-204.611 204.627zM652.417 386.089l-12.486-75.987c-2.449-14.854-15.081-25.637-30.032-25.637-15.097 0-27.389 12.194-27.389 27.178v75.404c0 17.367 14.156 31.507 31.54 31.507h10.816c8.238 0 15.989-3.584 21.308-9.843 5.319-6.276 7.605-14.513 6.243-22.621zM513.253 521.312c0-17.367-14.14-31.507-31.507-31.507h-24.21c-17.578 0-32.415 12.567-35.286 29.886l-10.929 65.706c-1.313 7.962 0.924 16.054 6.162 22.232 5.53 6.519 13.654 10.248 22.313 10.248h42.421c17.108 0 31.037-14.14 31.037-31.524v-65.042zM513.253 311.626c0-14.983-12.292-27.161-27.389-27.161-14.935 0-27.567 10.767-29.999 25.621l-12.6 76.004c-1.33 8.108 0.941 16.346 6.243 22.621 5.319 6.259 13.070 9.843 21.308 9.843h10.929c17.367 0 31.507-14.14 31.507-31.507v-75.42zM378.484 294.826c-5.578-6.584-13.832-10.362-22.605-10.362h-4.492c-17.302 0-32.464 11.465-36.875 27.891l-2.627 9.729c-4.686 17.27-10.556 38.983-16.978 64.636-1.897 7.508-0.227 15.389 4.589 21.551 5.027 6.438 12.956 10.281 21.259 10.281h16.751c17.562 0 32.399-12.583 35.286-29.918l11.854-71.69c1.313-7.881-0.924-15.956-6.162-22.118zM263.076 517.842c-4.8 18.94-9.34 35.691-13.362 50.545l-4.378 16.232c-2.092 7.881-0.438 16.151 4.573 22.67 5.157 6.73 13.038 10.589 21.599 10.589h34.621c17.254 0 31.815-12.583 34.686-29.918l10.848-65.69c1.346-8.108-0.924-16.346-6.243-22.621-5.319-6.259-13.070-9.843-21.291-9.843h-24.291c-17.448 0-32.578 11.513-36.761 28.037zM804.473 385.78c-6.405-25.475-12.243-47.058-16.881-64.198l-2.14-7.881c-4.638-17.205-19.427-29.237-35.999-29.237h-11.675c-7.832 0-15.275 3.438-20.367 9.47-5.367 6.324-7.67 14.708-6.292 23.010l11.87 71.69c0.892 5.449 3.097 10.346 6.081 14.61-105.614 26.334-183.968 121.538-183.968 235.291 0 17.335 1.881 34.215 5.335 50.528h-301.241c-17.529 0-32.805 11.854-37.15 28.832l-16.037 62.48c-6.016 23.448-27.113 39.842-51.534 39.842l-89.009-0.308c-16.913-0.049-30.68-13.865-30.68-30.778s13.751-30.664 30.664-30.664h48.631c17.562 0 32.756-11.919 36.94-28.978l116.608-476.21c5.773-23.578 26.772-40.037 51.031-40.037h482.291c24.291 0 45.356 16.443 51.258 40.004l40.394 161.72c-24.145-10.248-50.383-16.443-77.803-18.34 0.616-3.551 0.584-7.216-0.324-10.848zM337.654 166.227c-48.664 0-88.23-40.572-88.23-90.452 0-49.864 39.567-90.436 88.23-90.436 48.712 0 88.328 40.572 88.328 90.436 0 49.88-39.615 90.452-88.328 90.452zM761.839 166.227c-48.647 0-88.23-40.572-88.23-90.452 0-49.864 39.583-90.436 88.23-90.436s88.23 40.572 88.23 90.436c0 49.88-39.583 90.452-88.23 90.452z" />
<glyph unicode="&#xe668;" glyph-name="Tablet" d="M559.921 359.496c-6.364 11.057-21.24 12.79-32.466 18.817-29.429 15.765-47.74 47.311-46.958 80.696 0.322 13.035 6.533 27.144 0.046 38.416-1.196 2.101-2.684 4.003-4.417 5.69-6.61 6.364-16.225 8.711-24.921 5.751-15.642-5.291-18.326-24.69-19.492-41.192-4.049-56.619 27.298-110.939 78.35-135.69 14.707-7.162 32.665-14.446 45.010-3.635 7.545 6.625 10.152 17.314 6.84 26.791-0.521 1.503-1.196 2.975-1.994 4.355zM529.166 264.381c-6.778 11.793-22.513 13.526-35.042 18.756-76.28 31.837-122.18 112.871-109.957 194.901 1.856 12.422 7.223 25.81 0.966 36.668-1.212 2.086-2.684 4.003-4.432 5.674-6.594 6.38-16.225 8.726-24.921 5.766-16.317-5.521-18.403-26.209-20.688-43.308-13.909-104.007 45.118-206.235 142.162-246.046 15.673-6.441 34.275-14.722 47.035-3.543 7.576 6.625 10.152 17.299 6.855 26.776-0.521 1.488-1.181 2.96-1.978 4.355zM952.291 722.491c16.363 13.449 18.74 37.603 5.291 53.966s-37.603 18.74-53.966 5.291l-362.613-291.608c-16.363-13.449-18.74-37.603-5.306-53.966 13.449-16.363 37.618-18.725 53.966-5.291l362.628 291.608zM490.363 53.702c-17.084 0-30.947 13.848-30.947 30.963 0 17.084 13.863 30.932 30.947 30.932 17.099 0 30.947-13.848 30.947-30.932 0-17.115-13.848-30.963-30.947-30.963zM722.376 485.249v-314.673c0-6.824-5.582-12.391-12.391-12.391h-435.304c-6.794 0-12.376 5.567-12.376 12.391v601.037c0 6.809 5.582 12.376 12.376 12.376h435.304c6.809 0 12.391-5.567 12.391-12.376v-87.567l76.679 59.564v142.285c0 21.501-17.59 39.075-39.075 39.075h-535.262c-21.485 0-39.091-17.575-39.091-39.075v-841.976c0-21.501 17.605-39.091 39.091-39.091l535.262 1.488c21.485 0 39.075 17.59 39.075 39.091v506.845l-76.679-67.002z" />
<glyph unicode="&#xe669;" glyph-name="Trash-Bin" d="M914.321 836.834h-338.525v42.577c0 23.654-17.031 42.726-37.996 42.726h-31.671c-21.015 0-37.996-19.073-37.996-42.726v-42.577h-350.825c-20.417 0-36.95-19.073-36.95-42.677v-42.627c0-23.654 16.533-42.577 36.95-42.577h797.013c20.367 0 36.9 18.923 36.9 42.577v42.627c0 23.604-16.533 42.677-36.9 42.677zM757.584 182.51c0-28.634-24.899-51.79-55.574-51.79s-55.574 23.156-55.574 51.79v307.85c0 28.584 24.899 51.839 55.574 51.839s55.574-23.256 55.574-51.839v-307.85zM571.39 182.51c0-28.634-24.849-51.79-55.574-51.79-30.675 0-55.574 23.156-55.574 51.79v307.85c0 28.584 24.899 51.839 55.574 51.839 30.725 0 55.574-23.256 55.574-51.839v-307.85zM388.184 182.51c0-28.634-24.899-51.79-55.524-51.79-30.725 0-55.574 23.156-55.574 51.79v307.85c0 28.584 24.849 51.839 55.574 51.839 30.626 0 55.524-23.256 55.524-51.839v-307.85zM155.429 645.778v-590.153c0-39.888 32.319-72.057 72.057-72.057h596.129c39.788 0 72.057 32.169 72.057 72.057v590.153h-740.243z" />
<glyph unicode="&#xe66a;" glyph-name="Medal" d="M508.939 84.665c-98.337 0-178.062 79.707-178.062 178.045 0 98.371 79.724 178.095 178.062 178.095s178.062-79.724 178.062-178.095c0-98.337-79.724-178.045-178.062-178.045zM985.904 790.376c7.091 12.768 4.396 40.679-1.297 55.839-2.796 7.496-13.054 7.9-17.265 1.078l-269.526-436.066c-2.072-3.352-6.839-3.992-9.298-0.859-3.099 3.874-6.3 7.664-9.652 11.353-3.419 3.773-4.396 9.332-1.718 13.644l273.401 440.463c5.441 8.776 5.575 19.927 0.337 28.821l-28.467 48.394c-3.874 6.536-13.358 6.637-17.333 0.135l-289.723-473.697c-2.358-3.841-7.075-5.811-11.185-3.942-4.278 1.937-8.607 3.756-13.021 5.458-4.076 1.55-5.896 6.384-3.622 10.107l300.705 490.592c5.491 8.944 6.586 20.5 0.118 28.787-3.958 5.070-8.995 6.738-13.964 5.255-0.354-0.084-0.674-0.32-1.044-0.32-0.067 0-0.135-0.034-0.152-0.101l-316.943-515.925c-2.594-4.211-7.462-6.586-12.364-5.794-11.538 1.819-23.329 2.796-35.373 2.796-11.353 0-22.47-0.943-33.369-2.56-4.784-0.724-9.399 1.802-11.926 5.929l-307.83 501.271c-5.66 9.248-17.013 17.973-23.649 9.416-6.451-8.287-5.39-19.809 0.101-28.753l300.402-489.598c2.156-3.504 1.095-8.237-2.762-9.685-4.447-1.6-8.81-3.419-13.122-5.289-4.396-1.937-9.584-0.472-12.094 3.622l-289.201 472.433c-3.992 6.502-13.475 6.435-17.35-0.135l-28.484-48.36c-5.255-8.928-5.104-20.078 0.354-28.854l272.558-438.357c2.527-4.076 2.139-9.365-1.162-12.819-3.436-3.655-6.755-7.378-9.955-11.218-2.712-3.268-7.833-3.487-10.073 0.118l-268.212 433.742c-4.211 6.856-14.57 6.418-17.097-1.179-5.171-15.632-5.643-45.362 1.398-58.096l257.264-418.077c2.897-4.683 2.779-10.561 0.64-15.632-11.656-27.608-18.276-57.877-18.276-89.713 0-128.084 103.812-231.879 231.846-231.879s231.846 103.795 231.846 231.879c0 28.972-5.323 56.715-15.042 82.268-1.887 4.969-1.533 10.561 1.196 15.076l259.386 428.436zM186.084 1011.336c5.272-8.978 14.958-14.537 25.368-14.537h596.34c10.41 0 20.112 5.559 25.368 14.537l7.866 13.391c3.773 6.451-0.859 14.537-8.321 14.537h-646.149c-7.462 0-12.094-8.085-8.321-14.537l7.849-13.391zM280.051 872.995c-7.563 0-12.347-8.119-8.675-14.739l1.331-2.409c5.036-9.079 14.655-14.739 25.014-14.739h423.804c10.376 0 19.994 5.66 25.014 14.739l1.314 2.409c3.672 6.62-1.112 14.739-8.675 14.739h-459.126zM778.754 913.987l23.161 41.808c3.672 6.62-1.095 14.739-8.675 14.739h-567.216c-7.58 0-12.364-8.119-8.692-14.739l23.144-41.808c5.020-9.079 14.638-14.739 25.014-14.739h488.25c10.376 0 19.994 5.66 25.014 14.739zM628.733 298.478h-76.76c-5.373 0-10.191 3.487-11.858 8.624l-23.717 73.003c-1.752 5.39-9.433 5.39-11.185 0l-23.7-73.003c-1.668-5.138-6.468-8.624-11.858-8.624h-76.743c-5.71 0-8.085-7.31-3.47-10.662l62.088-45.109c4.363-3.184 6.199-8.81 4.531-13.947l-23.734-72.97c-1.769-5.424 4.447-9.938 9.062-6.569l62.071 45.092c4.363 3.167 10.309 3.167 14.671 0l62.105-45.092c4.615-3.369 10.831 1.145 9.062 6.569l-23.734 72.97c-1.651 5.138 0.185 10.764 4.548 13.947l62.088 45.109c4.599 3.352 2.223 10.662-3.47 10.662z" />
<glyph unicode="&#xe66b;" glyph-name="Trash" d="M170.695 774.781h749.419c22.999 0 41.634 18.636 41.634 41.634s-18.636 41.634-41.634 41.634h-74.942c-9.21 0-16.654 7.461-16.654 16.654 0 18.386-14.922 33.307-33.307 33.307h-499.612c-18.386 0-33.307-14.922-33.307-33.307 0-9.193-7.444-16.654-16.654-16.654h-74.942c-22.999 0-41.634-18.636-41.634-41.634s18.636-41.634 41.634-41.634zM779.705 563.643l-57.822-433.58c-1.882-14.156-14.006-24.764-28.278-24.764-13.523 0-24.215 11.424-23.315 24.931l28.878 433.147c1.549 23.349 20.984 41.534 44.399 41.534 22.066 0 39.053-19.402 36.139-41.268zM580.309 140.238c-0.899-19.551-17.020-34.94-36.588-34.94s-35.689 15.388-36.588 34.94l-19.785 423.088c-1.049 22.649 17.020 41.584 39.703 41.584h33.341c22.682 0 40.752-18.935 39.703-41.584l-19.785-423.088zM393.837 105.299c-14.272 0-26.396 10.608-28.278 24.764l-57.822 433.58c-2.914 21.866 14.072 41.268 36.139 41.268 23.415 0 42.85-18.186 44.399-41.534l28.878-433.147c0.899-13.506-9.776-24.931-23.315-24.931zM920.112 728.149h-749.419c-22.999 0-41.634-18.636-41.634-41.634v-2.148c0-21.8 17.67-39.486 39.469-39.486 11.291 0 20.917-8.344 22.466-19.535l76.84-549.907c0.983-7.111-4.53-13.44-11.691-13.44-15.005 0-27.146-12.141-27.146-27.129v-14.505c0-22.982 18.636-41.634 41.634-41.634h549.54c22.999 0 41.634 18.652 41.634 41.634v14.505c0 14.988-12.157 27.129-27.146 27.129-7.178 0-12.69 6.328-11.691 13.44l76.824 549.907c1.565 11.191 11.175 19.535 22.483 19.535 21.783 0 39.469 17.686 39.469 39.486v2.148c0 22.999-18.636 41.634-41.634 41.634z" />
<glyph unicode="&#xe66c;" glyph-name="USB" d="M946.015 259.028c0-8.085-6.147-14.898-13.415-14.944h-151.996c-16.73 0-30.281 13.551-30.281 30.281v339.452c0 16.715 13.551 30.281 30.281 30.281h151.996c7.207-0.030 13.415-6.904 13.415-14.944v-370.127zM647.79 429.042l-47.829-24.815c-9.811-6.283-22.681 0.757-22.681 12.415 0 7.434-6.041 13.46-13.475 13.46h-155.585c-5.829 0-8.903-6.904-4.996-11.234l37.821-41.924c6.45-7.146 15.671-11.249 25.285-11.249h11.673c3.846 0 6.95 3.119 6.95 6.965 0 7.691 6.238 13.914 13.929 13.914h22.908c16.73 0 30.281-13.551 30.281-30.281v-13.944c0-16.73-13.551-30.281-30.281-30.281h-21.409c-8.524 0-15.428 6.904-15.428 15.428 0 4.255-3.452 7.707-7.707 7.707h-7.358c-19.153 0-37.518 8.176-50.342 22.393l-55.248 61.274c-6.45 7.131-15.671 11.234-25.285 11.234h-69.798c-9.054 0-16.473-6.51-20.894-14.399-8.872-15.822-24.543-26.345-42.712-26.345-27.813 0-50.464 25.043-50.464 56.035 0 30.947 22.65 55.975 50.464 55.975 18.169 0 33.839-10.523 42.712-26.345 4.421-7.903 11.84-14.414 20.894-14.414h2.816c9.614 0 18.835 4.118 25.239 11.28l51.826 57.776c12.839 14.308 31.265 22.544 50.494 22.544h5.102c8.676 0 16.216 5.481 20.909 12.779 7.449 11.567 19.607 19.153 33.385 19.153 22.862 0 41.304-20.531 41.304-45.8 0-25.3-18.441-45.8-41.304-45.8-11.991 0-22.771 5.723-30.296 14.823-6.056 7.343-13.687 14.323-23.195 14.323h-9.569c-9.584 0-18.759-4.224-25.012-11.492l-32.764-38.094c-3.876-4.512-0.666-11.492 5.269-11.492h220.386c7.434 0 13.475 6.041 13.475 13.475 0 11.658 12.87 18.699 22.681 12.415l47.814-24.785c11.931-7.631 11.931-25.027 0.015-32.673zM932.6 681.965h-167.137c-8.373 0-15.141 6.783-15.141 15.141v11.446c0 24.694-18.184 44.877-40.41 44.877h-595.54c-22.211 0-40.41-20.182-40.41-44.877v-516.506c0-24.694 18.199-44.892 40.41-44.892h595.54c22.226 0 40.41 20.198 40.41 44.892 0 8.085 7.056 14.141 15.141 14.141h167.137c26.284 0.076 47.496 23.634 47.572 52.841l0.076 370.127c-0.151 29.176-21.333 52.72-47.647 52.81zM857.079 383.924c-16.155 0-29.267-13.097-29.267-29.267v-6.404c0-16.17 13.112-29.282 29.267-29.282 16.17 0 29.267 13.112 29.267 29.282v6.404c0 16.17-13.097 29.267-29.267 29.267zM857.079 569.201c-16.155 0-29.267-13.097-29.267-29.267v-6.389c0-16.17 13.112-29.267 29.267-29.267 16.17 0 29.267 13.097 29.267 29.267v6.389c0 16.17-13.097 29.267-29.267 29.267z" />
<glyph unicode="&#xe66d;" glyph-name="Award" d="M863.253 93.778c0-9.173-7.455-16.629-16.629-16.629h-665.141c-9.173 0-16.629 7.455-16.629 16.629v387.999c0 9.173 7.455 16.629 16.629 16.629h197.353l-59.599-116.053c-1.081-2.605-0.79-5.557 0.762-7.885 1.566-2.37 4.199-3.783 7.012-3.783 1.164 0 2.286 0.249 3.409 0.721l76.034 33.797 31.178-75.812c1.33-3.215 4.42-5.28 7.899-5.28 3.45 0 6.568 2.065 8.009 5.474l60.625 116.511 61.526-118.658c1.33-3.187 4.407-5.266 7.885-5.266s6.596 2.079 7.926 5.28l31.054 75.618 76.103-33.576c1.15-0.499 2.273-0.734 3.45-0.734 2.799 0 5.432 1.4 6.998 3.769 1.552 2.342 1.829 5.28 0.845 7.691l-60.542 118.187h197.214c9.173 0 16.629-7.455 16.629-16.629v-387.999zM514.664 784.416c77.295 0 140.192-62.884 140.192-140.178s-62.897-140.178-140.192-140.178c-77.281 0-140.165 62.884-140.165 140.178s62.884 140.178 140.165 140.178zM902.053 562.148h-220.203l8.397 5.141c2.979 1.829 5.044 4.143 6.097 6.873 1.386 3.617 1.275 7.538-0.291 11.072l-12.097 27.617 21.201 21.174c2.73 2.73 4.226 6.333 4.24 10.185 0 3.866-1.497 7.524-4.24 10.282l-24.707 25.22 12.513 32.384c1.386 3.617 1.275 7.552-0.277 11.072-1.58 3.534-4.42 6.25-8.023 7.635l-28.088 10.961v29.959c0 7.968-6.485 14.453-14.467 14.453l-35.28 0.374-14.079 31.719c-2.314 5.238-7.497 8.619-13.206 8.619-2.023 0-3.991-0.416-5.862-1.261l-27.631-12.083-21.174 21.201c-2.73 2.716-6.36 4.213-10.199 4.213-3.88 0-7.497-1.497-10.268-4.24l-25.178-24.68-32.439 12.499c-1.649 0.637-3.395 0.956-5.183 0.956-5.917 0-11.349-3.7-13.483-9.257l-10.975-28.061h-29.945c-7.968 0-14.439-6.485-14.439-14.481l-0.388-35.266-31.76-14.093c-3.534-1.552-6.236-4.393-7.635-8.009-1.386-3.617-1.275-7.524 0.305-11.058l12.083-27.617-21.201-21.201c-2.73-2.716-4.226-6.36-4.226-10.227 0.014-3.866 1.51-7.469 4.254-10.213l24.666-25.22-12.485-32.398c-1.621-4.199-0.79-7.996 0.166-10.462l1.51-3.783h-212c-13.746 0-24.943-11.197-24.943-24.943v-498.856c0-13.746 11.197-24.943 24.943-24.943h775.998c13.746 0 24.943 11.197 24.943 24.943v498.856c0 13.746-11.197 24.943-24.943 24.943zM249.103 263.081h155.186c7.663 0 13.857 6.194 13.857 13.857v5.723c0 7.663-6.194 13.857-13.857 13.857h-155.186c-7.663 0-13.857-6.194-13.857-13.857v-5.723c0-7.663 6.194-13.857 13.857-13.857zM777.692 158.801h-528.011c-7.649 0-13.857-6.194-13.857-13.857v-5.723c0-7.663 6.208-13.857 13.857-13.857h528.011c7.663 0 13.857 6.194 13.857 13.857v5.723c0 7.663-6.194 13.857-13.857 13.857zM249.235 187.665h528.011c7.649 0 13.857 6.194 13.857 13.857v5.723c0 7.663-6.208 13.857-13.857 13.857h-528.011c-7.663 0-13.857-6.194-13.857-13.857v-5.723c0-7.663 6.194-13.857 13.857-13.857z" />
<glyph unicode="&#xe66e;" glyph-name="Battery" d="M765.538 101.033c0-21.811-17.673-39.484-39.484-39.484h-394.836c-21.811 0-39.484 17.673-39.484 39.484v631.738c0 21.795 17.673 39.484 39.484 39.484h394.836c21.811 0 39.484-17.689 39.484-39.484v-631.738zM765.538 851.222h-52.64c-14.546 0-26.328 11.798-26.328 26.328 0 29.060-23.564 52.64-52.64 52.64h-210.59c-29.076 0-52.64-23.58-52.64-52.64 0-14.53-11.782-26.328-26.328-26.328h-52.64c-43.621 0-78.967-35.362-78.967-78.967v-710.705c0-43.606 35.346-78.967 78.967-78.967h473.803c43.621 0 78.967 35.362 78.967 78.967v710.705c0 43.606-35.346 78.967-78.967 78.967zM686.57 487.965h-315.869c-17.436 0-31.587-14.151-31.587-31.587v-315.869c0-17.436 14.151-31.587 31.587-31.587h315.869c17.436 0 31.587 14.151 31.587 31.587v315.869c0 17.436-14.151 31.587-31.587 31.587z" />
<glyph unicode="&#xe66f;" glyph-name="Battery_Charged" d="M781.289 75.009c0-22.985-18.625-41.61-41.61-41.61h-416.101c-22.985 0-41.61 18.625-41.61 41.61v665.762c0 22.969 18.625 41.61 41.61 41.61h416.101c22.985 0 41.61-18.641 41.61-41.61v-665.762zM781.289 865.601h-55.475c-15.329 0-27.746 12.433-27.746 27.746 0 30.625-24.833 55.475-55.475 55.475h-221.932c-30.642 0-55.475-24.85-55.475-55.475 0-15.313-12.416-27.746-27.746-27.746h-55.475c-45.971 0-83.22-37.266-83.22-83.22v-748.982c0-45.954 37.249-83.22 83.22-83.22h499.321c45.971 0 83.22 37.266 83.22 83.22v748.982c0 45.954-37.249 83.22-83.22 83.22zM621.821 408.183l-137.496-216.889c-2.746-4.311-9.387-1.215-7.839 3.645l50.864 162.080c2.73 8.688-2.28 17.892-11.052 20.322l-66.476 18.392c-15.529 4.294-21.937 22.752-12.433 35.735l126.528 173.048c4.161 5.692 13.099 1.448 11.335-5.359l-29.011-112.597c-2.347-9.104 2.696-18.508 11.568-21.621l50.431-17.643c16.062-5.626 22.719-24.716 13.582-39.114zM696.753 732.176h-332.881c-18.392 0-33.288-14.896-33.288-33.288v-582.542c0-18.375 14.896-33.288 33.288-33.288h332.881c18.375 0 33.288 14.913 33.288 33.288v582.542c0 18.392-14.913 33.288-33.288 33.288z" />
</font>
</defs>
</svg>
